G04 MADE WITH FRITZING*
G04 WWW.FRITZING.ORG*
G04 DOUBLE SIDED*
G04 HOLES PLATED*
G04 CONTOUR ON CENTER OF CONTOUR VECTOR*
%ASAXBY*%
%FSLAX23Y23*%
%MOIN*%
%OFA0B0*%
%SFA1.0B1.0*%
%ADD10C,0.039370*%
%ADD11C,0.027559*%
%ADD12C,0.078000*%
%ADD13R,0.080000X0.026000*%
%ADD14C,0.016000*%
%ADD15C,0.008000*%
%LNCOPPER1*%
G90*
G70*
G54D10*
X330Y628D03*
X326Y199D03*
X929Y691D03*
X606Y742D03*
G54D11*
X464Y585D03*
G54D10*
X606Y262D03*
X389Y396D03*
X826Y416D03*
X606Y431D03*
X606Y581D03*
X771Y152D03*
X772Y486D03*
G54D12*
X1106Y69D03*
X1106Y169D03*
X1106Y269D03*
X1106Y369D03*
X1106Y469D03*
X1106Y569D03*
X1106Y669D03*
X1106Y769D03*
X63Y766D03*
X63Y666D03*
X63Y566D03*
X63Y466D03*
X63Y366D03*
X63Y266D03*
X63Y166D03*
X63Y66D03*
G54D13*
X220Y545D03*
X220Y495D03*
X220Y445D03*
X220Y395D03*
X220Y345D03*
X220Y295D03*
X220Y245D03*
X220Y195D03*
X462Y195D03*
X462Y245D03*
X462Y295D03*
X462Y345D03*
X462Y395D03*
X462Y445D03*
X462Y495D03*
X462Y545D03*
X929Y263D03*
X929Y313D03*
X929Y363D03*
X929Y413D03*
X929Y463D03*
X929Y513D03*
X929Y563D03*
X929Y613D03*
X687Y613D03*
X687Y563D03*
X687Y513D03*
X687Y463D03*
X687Y413D03*
X687Y363D03*
X687Y313D03*
X687Y263D03*
X220Y776D03*
X220Y726D03*
X220Y676D03*
X220Y626D03*
X462Y626D03*
X462Y676D03*
X462Y726D03*
X462Y776D03*
G54D14*
X826Y691D02*
X915Y691D01*
D02*
X826Y429D02*
X826Y691D01*
D02*
X255Y196D02*
X313Y199D01*
D02*
X317Y628D02*
X255Y626D01*
D02*
X619Y262D02*
X653Y263D01*
D02*
X464Y574D02*
X462Y552D01*
D02*
X595Y750D02*
X554Y774D01*
D02*
X554Y774D02*
X497Y775D01*
D02*
X929Y678D02*
X929Y621D01*
D02*
X619Y578D02*
X653Y571D01*
D02*
X539Y247D02*
X497Y246D01*
D02*
X601Y419D02*
X539Y247D01*
D02*
X813Y415D02*
X722Y414D01*
D02*
X403Y396D02*
X428Y395D01*
G54D15*
D02*
X610Y364D02*
X543Y196D01*
D02*
X653Y364D02*
X610Y364D01*
D02*
X402Y149D02*
X758Y152D01*
D02*
X402Y329D02*
X402Y149D01*
D02*
X433Y337D02*
X402Y329D01*
D02*
X543Y196D02*
X497Y195D01*
D02*
X759Y483D02*
X715Y471D01*
D02*
X771Y695D02*
X772Y500D01*
D02*
X531Y726D02*
X570Y695D01*
D02*
X570Y695D02*
X771Y695D01*
D02*
X497Y726D02*
X531Y726D01*
D02*
X358Y589D02*
X358Y495D01*
D02*
X358Y495D02*
X428Y495D01*
D02*
X85Y755D02*
X138Y730D01*
D02*
X138Y730D02*
X161Y593D01*
D02*
X161Y593D02*
X358Y589D01*
D02*
X153Y546D02*
X77Y646D01*
D02*
X186Y545D02*
X153Y546D01*
D02*
X150Y494D02*
X82Y550D01*
D02*
X186Y494D02*
X150Y494D01*
D02*
X146Y443D02*
X86Y460D01*
D02*
X186Y444D02*
X146Y443D01*
D02*
X150Y396D02*
X86Y374D01*
D02*
X186Y395D02*
X150Y396D01*
D02*
X146Y345D02*
X80Y283D01*
D02*
X186Y345D02*
X146Y345D01*
D02*
X150Y293D02*
X76Y186D01*
D02*
X186Y294D02*
X150Y293D01*
D02*
X161Y120D02*
X84Y78D01*
D02*
X161Y247D02*
X161Y120D01*
D02*
X186Y246D02*
X161Y247D01*
D02*
X1039Y762D02*
X1082Y767D01*
D02*
X991Y565D02*
X1039Y762D01*
D02*
X964Y564D02*
X991Y565D01*
D02*
X1047Y668D02*
X1081Y669D01*
D02*
X999Y514D02*
X1047Y668D01*
D02*
X964Y514D02*
X999Y514D01*
D02*
X1051Y574D02*
X1081Y571D01*
D02*
X1003Y463D02*
X1051Y574D01*
D02*
X964Y463D02*
X1003Y463D01*
D02*
X1003Y412D02*
X1085Y457D01*
D02*
X964Y413D02*
X1003Y412D01*
D02*
X1011Y364D02*
X1081Y368D01*
D02*
X964Y364D02*
X1011Y364D01*
D02*
X1011Y314D02*
X1084Y280D01*
D02*
X964Y314D02*
X1011Y314D01*
D02*
X1015Y262D02*
X1089Y187D01*
D02*
X964Y263D02*
X1015Y262D01*
D02*
X763Y314D02*
X1086Y83D01*
D02*
X722Y314D02*
X763Y314D01*
D02*
X527Y593D02*
X477Y618D01*
D02*
X527Y445D02*
X527Y593D01*
D02*
X497Y445D02*
X527Y445D01*
D02*
X562Y514D02*
X653Y514D01*
D02*
X562Y431D02*
X562Y514D01*
D02*
X527Y400D02*
X562Y431D01*
D02*
X527Y293D02*
X527Y400D01*
D02*
X497Y294D02*
X527Y293D01*
D02*
X562Y632D02*
X479Y668D01*
D02*
X562Y514D02*
X562Y632D01*
G04 End of Copper1*
M02*