; NON-PLATED HOLES START AT T1
; THROUGH (PLATED) HOLES START AT T100
M48
INCH
T100C0.011811
T101C0.038000
T102C0.015748
%
T100
X004641Y005849
T101
X000626Y003660
X011059Y004692
X000626Y004660
X011059Y005692
X000626Y005660
X011059Y006692
X011059Y000692
X000626Y006660
X011059Y007692
X000626Y000660
X011059Y001692
X000626Y007660
X000626Y001660
X011059Y002692
X000626Y002660
X011059Y003692
T102
X008264Y004156
X006059Y004314
X006059Y007424
X003303Y006282
X006059Y002621
X003893Y003959
X009287Y006912
X007712Y001518
X003264Y001991
X007716Y004860
X006059Y005810
T00
M30
