G04 MADE WITH FRITZING*
G04 WWW.FRITZING.ORG*
G04 DOUBLE SIDED*
G04 HOLES PLATED*
G04 CONTOUR ON CENTER OF CONTOUR VECTOR*
%ASAXBY*%
%FSLAX23Y23*%
%MOIN*%
%OFA0B0*%
%SFA1.0B1.0*%
%ADD10C,0.010000*%
%ADD11C,0.005000*%
%ADD12C,0.006000*%
%ADD13C,0.002000*%
%ADD14R,0.001000X0.001000*%
%LNSILK1*%
G90*
G70*
G54D10*
X1156Y19D02*
X1156Y819D01*
D02*
X1156Y819D02*
X1056Y819D01*
D02*
X1056Y819D02*
X1056Y19D01*
D02*
X1056Y19D02*
X1156Y19D01*
G54D11*
D02*
X1156Y54D02*
X1121Y19D01*
G54D10*
D02*
X13Y816D02*
X13Y16D01*
D02*
X13Y16D02*
X113Y16D01*
D02*
X113Y16D02*
X113Y816D01*
D02*
X113Y816D02*
X13Y816D01*
G54D11*
D02*
X13Y781D02*
X48Y816D01*
G54D12*
D02*
X279Y170D02*
X403Y170D01*
D02*
X403Y570D02*
X279Y570D01*
G54D13*
D02*
X278Y570D02*
X278Y170D01*
G54D12*
D02*
X870Y638D02*
X746Y638D01*
D02*
X746Y238D02*
X870Y238D01*
G54D13*
D02*
X871Y238D02*
X871Y638D01*
G54D12*
D02*
X279Y598D02*
X403Y598D01*
D02*
X403Y801D02*
X279Y801D01*
G54D13*
D02*
X278Y800D02*
X278Y599D01*
G54D14*
X0Y837D02*
X1169Y837D01*
X0Y836D02*
X1169Y836D01*
X0Y835D02*
X1169Y835D01*
X0Y834D02*
X1169Y834D01*
X0Y833D02*
X1169Y833D01*
X0Y832D02*
X1169Y832D01*
X0Y831D02*
X1169Y831D01*
X0Y830D02*
X1169Y830D01*
X0Y829D02*
X7Y829D01*
X1162Y829D02*
X1169Y829D01*
X0Y828D02*
X7Y828D01*
X1162Y828D02*
X1169Y828D01*
X0Y827D02*
X7Y827D01*
X1162Y827D02*
X1169Y827D01*
X0Y826D02*
X7Y826D01*
X1162Y826D02*
X1169Y826D01*
X0Y825D02*
X7Y825D01*
X1162Y825D02*
X1169Y825D01*
X0Y824D02*
X7Y824D01*
X1162Y824D02*
X1169Y824D01*
X0Y823D02*
X7Y823D01*
X1162Y823D02*
X1169Y823D01*
X0Y822D02*
X7Y822D01*
X1162Y822D02*
X1169Y822D01*
X0Y821D02*
X7Y821D01*
X1162Y821D02*
X1169Y821D01*
X0Y820D02*
X7Y820D01*
X1162Y820D02*
X1169Y820D01*
X0Y819D02*
X7Y819D01*
X1162Y819D02*
X1169Y819D01*
X0Y818D02*
X7Y818D01*
X1162Y818D02*
X1169Y818D01*
X0Y817D02*
X7Y817D01*
X1162Y817D02*
X1169Y817D01*
X0Y816D02*
X7Y816D01*
X1162Y816D02*
X1169Y816D01*
X0Y815D02*
X7Y815D01*
X1162Y815D02*
X1169Y815D01*
X0Y814D02*
X7Y814D01*
X1162Y814D02*
X1169Y814D01*
X0Y813D02*
X7Y813D01*
X1162Y813D02*
X1169Y813D01*
X0Y812D02*
X7Y812D01*
X1162Y812D02*
X1169Y812D01*
X0Y811D02*
X7Y811D01*
X1162Y811D02*
X1169Y811D01*
X0Y810D02*
X7Y810D01*
X1162Y810D02*
X1169Y810D01*
X0Y809D02*
X7Y809D01*
X1162Y809D02*
X1169Y809D01*
X0Y808D02*
X7Y808D01*
X1162Y808D02*
X1169Y808D01*
X0Y807D02*
X7Y807D01*
X1162Y807D02*
X1169Y807D01*
X0Y806D02*
X7Y806D01*
X1162Y806D02*
X1169Y806D01*
X0Y805D02*
X7Y805D01*
X1162Y805D02*
X1169Y805D01*
X0Y804D02*
X7Y804D01*
X276Y804D02*
X278Y804D01*
X403Y804D02*
X405Y804D01*
X1162Y804D02*
X1169Y804D01*
X0Y803D02*
X7Y803D01*
X273Y803D02*
X278Y803D01*
X403Y803D02*
X408Y803D01*
X1162Y803D02*
X1169Y803D01*
X0Y802D02*
X7Y802D01*
X271Y802D02*
X278Y802D01*
X403Y802D02*
X410Y802D01*
X1162Y802D02*
X1169Y802D01*
X0Y801D02*
X7Y801D01*
X269Y801D02*
X278Y801D01*
X319Y801D02*
X321Y801D01*
X359Y801D02*
X361Y801D01*
X403Y801D02*
X412Y801D01*
X1162Y801D02*
X1169Y801D01*
X0Y800D02*
X7Y800D01*
X268Y800D02*
X278Y800D01*
X319Y800D02*
X321Y800D01*
X359Y800D02*
X361Y800D01*
X403Y800D02*
X413Y800D01*
X1162Y800D02*
X1169Y800D01*
X0Y799D02*
X7Y799D01*
X266Y799D02*
X278Y799D01*
X319Y799D02*
X322Y799D01*
X359Y799D02*
X361Y799D01*
X403Y799D02*
X414Y799D01*
X1162Y799D02*
X1169Y799D01*
X0Y798D02*
X7Y798D01*
X266Y798D02*
X275Y798D01*
X320Y798D02*
X322Y798D01*
X359Y798D02*
X361Y798D01*
X406Y798D02*
X415Y798D01*
X1162Y798D02*
X1169Y798D01*
X0Y797D02*
X7Y797D01*
X265Y797D02*
X272Y797D01*
X320Y797D02*
X322Y797D01*
X359Y797D02*
X361Y797D01*
X408Y797D02*
X416Y797D01*
X1162Y797D02*
X1169Y797D01*
X0Y796D02*
X7Y796D01*
X264Y796D02*
X271Y796D01*
X320Y796D02*
X322Y796D01*
X358Y796D02*
X361Y796D01*
X410Y796D02*
X417Y796D01*
X1162Y796D02*
X1169Y796D01*
X0Y795D02*
X7Y795D01*
X263Y795D02*
X269Y795D01*
X320Y795D02*
X322Y795D01*
X358Y795D02*
X360Y795D01*
X411Y795D02*
X417Y795D01*
X1162Y795D02*
X1169Y795D01*
X0Y794D02*
X7Y794D01*
X265Y794D02*
X268Y794D01*
X321Y794D02*
X323Y794D01*
X358Y794D02*
X360Y794D01*
X412Y794D02*
X416Y794D01*
X1162Y794D02*
X1169Y794D01*
X0Y793D02*
X7Y793D01*
X265Y793D02*
X268Y793D01*
X321Y793D02*
X323Y793D01*
X357Y793D02*
X360Y793D01*
X413Y793D02*
X416Y793D01*
X1162Y793D02*
X1169Y793D01*
X0Y792D02*
X7Y792D01*
X265Y792D02*
X267Y792D01*
X322Y792D02*
X324Y792D01*
X357Y792D02*
X359Y792D01*
X413Y792D02*
X416Y792D01*
X1162Y792D02*
X1169Y792D01*
X0Y791D02*
X7Y791D01*
X265Y791D02*
X267Y791D01*
X322Y791D02*
X324Y791D01*
X356Y791D02*
X358Y791D01*
X414Y791D02*
X416Y791D01*
X1162Y791D02*
X1169Y791D01*
X0Y790D02*
X7Y790D01*
X265Y790D02*
X266Y790D01*
X323Y790D02*
X325Y790D01*
X355Y790D02*
X358Y790D01*
X414Y790D02*
X416Y790D01*
X1162Y790D02*
X1169Y790D01*
X0Y789D02*
X7Y789D01*
X265Y789D02*
X266Y789D01*
X323Y789D02*
X326Y789D01*
X355Y789D02*
X357Y789D01*
X414Y789D02*
X416Y789D01*
X1162Y789D02*
X1169Y789D01*
X0Y788D02*
X7Y788D01*
X265Y788D02*
X266Y788D01*
X324Y788D02*
X327Y788D01*
X354Y788D02*
X356Y788D01*
X415Y788D02*
X416Y788D01*
X1162Y788D02*
X1169Y788D01*
X0Y787D02*
X7Y787D01*
X265Y787D02*
X266Y787D01*
X291Y787D02*
X297Y787D01*
X325Y787D02*
X328Y787D01*
X353Y787D02*
X356Y787D01*
X415Y787D02*
X416Y787D01*
X1162Y787D02*
X1169Y787D01*
X0Y786D02*
X7Y786D01*
X265Y786D02*
X266Y786D01*
X289Y786D02*
X299Y786D01*
X326Y786D02*
X329Y786D01*
X351Y786D02*
X355Y786D01*
X415Y786D02*
X416Y786D01*
X1162Y786D02*
X1169Y786D01*
X0Y785D02*
X7Y785D01*
X265Y785D02*
X266Y785D01*
X287Y785D02*
X301Y785D01*
X327Y785D02*
X331Y785D01*
X349Y785D02*
X353Y785D01*
X415Y785D02*
X416Y785D01*
X1162Y785D02*
X1169Y785D01*
X0Y784D02*
X7Y784D01*
X265Y784D02*
X266Y784D01*
X286Y784D02*
X302Y784D01*
X328Y784D02*
X333Y784D01*
X347Y784D02*
X352Y784D01*
X415Y784D02*
X416Y784D01*
X1162Y784D02*
X1169Y784D01*
X0Y783D02*
X7Y783D01*
X265Y783D02*
X266Y783D01*
X285Y783D02*
X302Y783D01*
X330Y783D02*
X338Y783D01*
X343Y783D02*
X351Y783D01*
X415Y783D02*
X416Y783D01*
X1162Y783D02*
X1169Y783D01*
X0Y782D02*
X7Y782D01*
X265Y782D02*
X266Y782D01*
X285Y782D02*
X303Y782D01*
X332Y782D02*
X349Y782D01*
X415Y782D02*
X416Y782D01*
X1162Y782D02*
X1169Y782D01*
X0Y781D02*
X7Y781D01*
X265Y781D02*
X266Y781D01*
X284Y781D02*
X304Y781D01*
X334Y781D02*
X346Y781D01*
X415Y781D02*
X416Y781D01*
X1162Y781D02*
X1169Y781D01*
X0Y780D02*
X7Y780D01*
X265Y780D02*
X266Y780D01*
X284Y780D02*
X304Y780D01*
X338Y780D02*
X342Y780D01*
X415Y780D02*
X416Y780D01*
X1162Y780D02*
X1169Y780D01*
X0Y779D02*
X7Y779D01*
X265Y779D02*
X266Y779D01*
X283Y779D02*
X304Y779D01*
X415Y779D02*
X416Y779D01*
X1162Y779D02*
X1169Y779D01*
X0Y778D02*
X7Y778D01*
X265Y778D02*
X266Y778D01*
X283Y778D02*
X304Y778D01*
X415Y778D02*
X416Y778D01*
X1162Y778D02*
X1169Y778D01*
X0Y777D02*
X7Y777D01*
X265Y777D02*
X266Y777D01*
X283Y777D02*
X305Y777D01*
X415Y777D02*
X416Y777D01*
X1162Y777D02*
X1169Y777D01*
X0Y776D02*
X7Y776D01*
X265Y776D02*
X266Y776D01*
X283Y776D02*
X305Y776D01*
X415Y776D02*
X416Y776D01*
X1162Y776D02*
X1169Y776D01*
X0Y775D02*
X7Y775D01*
X265Y775D02*
X266Y775D01*
X283Y775D02*
X304Y775D01*
X415Y775D02*
X416Y775D01*
X1162Y775D02*
X1169Y775D01*
X0Y774D02*
X7Y774D01*
X265Y774D02*
X266Y774D01*
X283Y774D02*
X304Y774D01*
X415Y774D02*
X416Y774D01*
X1162Y774D02*
X1169Y774D01*
X0Y773D02*
X7Y773D01*
X265Y773D02*
X266Y773D01*
X284Y773D02*
X304Y773D01*
X415Y773D02*
X416Y773D01*
X1162Y773D02*
X1169Y773D01*
X0Y772D02*
X7Y772D01*
X265Y772D02*
X266Y772D01*
X284Y772D02*
X304Y772D01*
X415Y772D02*
X416Y772D01*
X1162Y772D02*
X1169Y772D01*
X0Y771D02*
X7Y771D01*
X265Y771D02*
X266Y771D01*
X285Y771D02*
X303Y771D01*
X415Y771D02*
X416Y771D01*
X1162Y771D02*
X1169Y771D01*
X0Y770D02*
X7Y770D01*
X265Y770D02*
X266Y770D01*
X285Y770D02*
X302Y770D01*
X415Y770D02*
X416Y770D01*
X1162Y770D02*
X1169Y770D01*
X0Y769D02*
X7Y769D01*
X265Y769D02*
X266Y769D01*
X286Y769D02*
X302Y769D01*
X415Y769D02*
X416Y769D01*
X1162Y769D02*
X1169Y769D01*
X0Y768D02*
X7Y768D01*
X265Y768D02*
X266Y768D01*
X287Y768D02*
X301Y768D01*
X415Y768D02*
X416Y768D01*
X1162Y768D02*
X1169Y768D01*
X0Y767D02*
X7Y767D01*
X265Y767D02*
X266Y767D01*
X288Y767D02*
X299Y767D01*
X415Y767D02*
X416Y767D01*
X1162Y767D02*
X1169Y767D01*
X0Y766D02*
X7Y766D01*
X265Y766D02*
X266Y766D01*
X290Y766D02*
X297Y766D01*
X415Y766D02*
X416Y766D01*
X1162Y766D02*
X1169Y766D01*
X0Y765D02*
X7Y765D01*
X265Y765D02*
X266Y765D01*
X415Y765D02*
X416Y765D01*
X1162Y765D02*
X1169Y765D01*
X0Y764D02*
X7Y764D01*
X265Y764D02*
X266Y764D01*
X415Y764D02*
X416Y764D01*
X1162Y764D02*
X1169Y764D01*
X0Y763D02*
X7Y763D01*
X265Y763D02*
X266Y763D01*
X415Y763D02*
X416Y763D01*
X1162Y763D02*
X1169Y763D01*
X0Y762D02*
X7Y762D01*
X265Y762D02*
X266Y762D01*
X415Y762D02*
X416Y762D01*
X1162Y762D02*
X1169Y762D01*
X0Y761D02*
X7Y761D01*
X265Y761D02*
X266Y761D01*
X415Y761D02*
X416Y761D01*
X1162Y761D02*
X1169Y761D01*
X0Y760D02*
X7Y760D01*
X265Y760D02*
X266Y760D01*
X415Y760D02*
X416Y760D01*
X1162Y760D02*
X1169Y760D01*
X0Y759D02*
X7Y759D01*
X265Y759D02*
X266Y759D01*
X415Y759D02*
X416Y759D01*
X1162Y759D02*
X1169Y759D01*
X0Y758D02*
X7Y758D01*
X261Y758D02*
X266Y758D01*
X415Y758D02*
X420Y758D01*
X1162Y758D02*
X1169Y758D01*
X0Y757D02*
X7Y757D01*
X261Y757D02*
X266Y757D01*
X415Y757D02*
X420Y757D01*
X1162Y757D02*
X1169Y757D01*
X0Y756D02*
X7Y756D01*
X261Y756D02*
X266Y756D01*
X415Y756D02*
X420Y756D01*
X1162Y756D02*
X1169Y756D01*
X0Y755D02*
X7Y755D01*
X261Y755D02*
X266Y755D01*
X415Y755D02*
X420Y755D01*
X1162Y755D02*
X1169Y755D01*
X0Y754D02*
X7Y754D01*
X261Y754D02*
X266Y754D01*
X415Y754D02*
X420Y754D01*
X1162Y754D02*
X1169Y754D01*
X0Y753D02*
X7Y753D01*
X261Y753D02*
X266Y753D01*
X415Y753D02*
X420Y753D01*
X1162Y753D02*
X1169Y753D01*
X0Y752D02*
X7Y752D01*
X261Y752D02*
X266Y752D01*
X415Y752D02*
X420Y752D01*
X1162Y752D02*
X1169Y752D01*
X0Y751D02*
X7Y751D01*
X261Y751D02*
X266Y751D01*
X415Y751D02*
X420Y751D01*
X1162Y751D02*
X1169Y751D01*
X0Y750D02*
X7Y750D01*
X261Y750D02*
X266Y750D01*
X415Y750D02*
X420Y750D01*
X1162Y750D02*
X1169Y750D01*
X0Y749D02*
X7Y749D01*
X261Y749D02*
X266Y749D01*
X415Y749D02*
X420Y749D01*
X1162Y749D02*
X1169Y749D01*
X0Y748D02*
X7Y748D01*
X261Y748D02*
X266Y748D01*
X415Y748D02*
X420Y748D01*
X1162Y748D02*
X1169Y748D01*
X0Y747D02*
X7Y747D01*
X261Y747D02*
X266Y747D01*
X415Y747D02*
X420Y747D01*
X1162Y747D02*
X1169Y747D01*
X0Y746D02*
X7Y746D01*
X261Y746D02*
X266Y746D01*
X415Y746D02*
X420Y746D01*
X1162Y746D02*
X1169Y746D01*
X0Y745D02*
X7Y745D01*
X261Y745D02*
X266Y745D01*
X415Y745D02*
X420Y745D01*
X1162Y745D02*
X1169Y745D01*
X0Y744D02*
X7Y744D01*
X265Y744D02*
X266Y744D01*
X415Y744D02*
X416Y744D01*
X1162Y744D02*
X1169Y744D01*
X0Y743D02*
X7Y743D01*
X265Y743D02*
X266Y743D01*
X415Y743D02*
X416Y743D01*
X1162Y743D02*
X1169Y743D01*
X0Y742D02*
X7Y742D01*
X265Y742D02*
X266Y742D01*
X415Y742D02*
X416Y742D01*
X1162Y742D02*
X1169Y742D01*
X0Y741D02*
X7Y741D01*
X265Y741D02*
X266Y741D01*
X415Y741D02*
X416Y741D01*
X1162Y741D02*
X1169Y741D01*
X0Y740D02*
X7Y740D01*
X265Y740D02*
X266Y740D01*
X415Y740D02*
X416Y740D01*
X1162Y740D02*
X1169Y740D01*
X0Y739D02*
X7Y739D01*
X265Y739D02*
X266Y739D01*
X415Y739D02*
X416Y739D01*
X1162Y739D02*
X1169Y739D01*
X0Y738D02*
X7Y738D01*
X265Y738D02*
X266Y738D01*
X415Y738D02*
X416Y738D01*
X1162Y738D02*
X1169Y738D01*
X0Y737D02*
X7Y737D01*
X265Y737D02*
X266Y737D01*
X415Y737D02*
X416Y737D01*
X1162Y737D02*
X1169Y737D01*
X0Y736D02*
X7Y736D01*
X265Y736D02*
X266Y736D01*
X415Y736D02*
X416Y736D01*
X1162Y736D02*
X1169Y736D01*
X0Y735D02*
X7Y735D01*
X265Y735D02*
X266Y735D01*
X415Y735D02*
X416Y735D01*
X1162Y735D02*
X1169Y735D01*
X0Y734D02*
X7Y734D01*
X265Y734D02*
X266Y734D01*
X415Y734D02*
X416Y734D01*
X1162Y734D02*
X1169Y734D01*
X0Y733D02*
X7Y733D01*
X265Y733D02*
X266Y733D01*
X415Y733D02*
X416Y733D01*
X1162Y733D02*
X1169Y733D01*
X0Y732D02*
X7Y732D01*
X265Y732D02*
X266Y732D01*
X415Y732D02*
X416Y732D01*
X1162Y732D02*
X1169Y732D01*
X0Y731D02*
X7Y731D01*
X265Y731D02*
X266Y731D01*
X415Y731D02*
X416Y731D01*
X1162Y731D02*
X1169Y731D01*
X0Y730D02*
X7Y730D01*
X265Y730D02*
X266Y730D01*
X415Y730D02*
X416Y730D01*
X1162Y730D02*
X1169Y730D01*
X0Y729D02*
X7Y729D01*
X265Y729D02*
X266Y729D01*
X415Y729D02*
X416Y729D01*
X1162Y729D02*
X1169Y729D01*
X0Y728D02*
X7Y728D01*
X265Y728D02*
X266Y728D01*
X415Y728D02*
X416Y728D01*
X1162Y728D02*
X1169Y728D01*
X0Y727D02*
X7Y727D01*
X265Y727D02*
X266Y727D01*
X415Y727D02*
X416Y727D01*
X1162Y727D02*
X1169Y727D01*
X0Y726D02*
X7Y726D01*
X265Y726D02*
X266Y726D01*
X415Y726D02*
X416Y726D01*
X1162Y726D02*
X1169Y726D01*
X0Y725D02*
X7Y725D01*
X265Y725D02*
X266Y725D01*
X415Y725D02*
X416Y725D01*
X1162Y725D02*
X1169Y725D01*
X0Y724D02*
X7Y724D01*
X265Y724D02*
X266Y724D01*
X415Y724D02*
X416Y724D01*
X1162Y724D02*
X1169Y724D01*
X0Y723D02*
X7Y723D01*
X265Y723D02*
X266Y723D01*
X415Y723D02*
X416Y723D01*
X1162Y723D02*
X1169Y723D01*
X0Y722D02*
X7Y722D01*
X265Y722D02*
X266Y722D01*
X415Y722D02*
X416Y722D01*
X1162Y722D02*
X1169Y722D01*
X0Y721D02*
X7Y721D01*
X265Y721D02*
X266Y721D01*
X415Y721D02*
X416Y721D01*
X1162Y721D02*
X1169Y721D01*
X0Y720D02*
X7Y720D01*
X265Y720D02*
X266Y720D01*
X415Y720D02*
X416Y720D01*
X1162Y720D02*
X1169Y720D01*
X0Y719D02*
X7Y719D01*
X265Y719D02*
X266Y719D01*
X415Y719D02*
X416Y719D01*
X1162Y719D02*
X1169Y719D01*
X0Y718D02*
X7Y718D01*
X265Y718D02*
X266Y718D01*
X415Y718D02*
X416Y718D01*
X1162Y718D02*
X1169Y718D01*
X0Y717D02*
X7Y717D01*
X265Y717D02*
X266Y717D01*
X415Y717D02*
X416Y717D01*
X1162Y717D02*
X1169Y717D01*
X0Y716D02*
X7Y716D01*
X265Y716D02*
X266Y716D01*
X415Y716D02*
X416Y716D01*
X1162Y716D02*
X1169Y716D01*
X0Y715D02*
X7Y715D01*
X265Y715D02*
X266Y715D01*
X415Y715D02*
X416Y715D01*
X1162Y715D02*
X1169Y715D01*
X0Y714D02*
X7Y714D01*
X265Y714D02*
X266Y714D01*
X415Y714D02*
X416Y714D01*
X1162Y714D02*
X1169Y714D01*
X0Y713D02*
X7Y713D01*
X265Y713D02*
X266Y713D01*
X415Y713D02*
X416Y713D01*
X1162Y713D02*
X1169Y713D01*
X0Y712D02*
X7Y712D01*
X265Y712D02*
X266Y712D01*
X415Y712D02*
X416Y712D01*
X1162Y712D02*
X1169Y712D01*
X0Y711D02*
X7Y711D01*
X265Y711D02*
X266Y711D01*
X415Y711D02*
X416Y711D01*
X1162Y711D02*
X1169Y711D01*
X0Y710D02*
X7Y710D01*
X265Y710D02*
X266Y710D01*
X415Y710D02*
X416Y710D01*
X1162Y710D02*
X1169Y710D01*
X0Y709D02*
X7Y709D01*
X265Y709D02*
X266Y709D01*
X415Y709D02*
X416Y709D01*
X1162Y709D02*
X1169Y709D01*
X0Y708D02*
X7Y708D01*
X261Y708D02*
X266Y708D01*
X415Y708D02*
X420Y708D01*
X1162Y708D02*
X1169Y708D01*
X0Y707D02*
X7Y707D01*
X261Y707D02*
X266Y707D01*
X415Y707D02*
X420Y707D01*
X1162Y707D02*
X1169Y707D01*
X0Y706D02*
X7Y706D01*
X261Y706D02*
X266Y706D01*
X415Y706D02*
X420Y706D01*
X1162Y706D02*
X1169Y706D01*
X0Y705D02*
X7Y705D01*
X261Y705D02*
X266Y705D01*
X415Y705D02*
X420Y705D01*
X1162Y705D02*
X1169Y705D01*
X0Y704D02*
X7Y704D01*
X261Y704D02*
X266Y704D01*
X415Y704D02*
X420Y704D01*
X1162Y704D02*
X1169Y704D01*
X0Y703D02*
X7Y703D01*
X261Y703D02*
X266Y703D01*
X415Y703D02*
X420Y703D01*
X1162Y703D02*
X1169Y703D01*
X0Y702D02*
X7Y702D01*
X261Y702D02*
X266Y702D01*
X415Y702D02*
X420Y702D01*
X1162Y702D02*
X1169Y702D01*
X0Y701D02*
X7Y701D01*
X261Y701D02*
X266Y701D01*
X415Y701D02*
X420Y701D01*
X1162Y701D02*
X1169Y701D01*
X0Y700D02*
X7Y700D01*
X261Y700D02*
X266Y700D01*
X415Y700D02*
X420Y700D01*
X1162Y700D02*
X1169Y700D01*
X0Y699D02*
X7Y699D01*
X261Y699D02*
X266Y699D01*
X415Y699D02*
X420Y699D01*
X1162Y699D02*
X1169Y699D01*
X0Y698D02*
X7Y698D01*
X261Y698D02*
X266Y698D01*
X415Y698D02*
X420Y698D01*
X1162Y698D02*
X1169Y698D01*
X0Y697D02*
X7Y697D01*
X261Y697D02*
X266Y697D01*
X415Y697D02*
X420Y697D01*
X1162Y697D02*
X1169Y697D01*
X0Y696D02*
X7Y696D01*
X261Y696D02*
X266Y696D01*
X415Y696D02*
X420Y696D01*
X1162Y696D02*
X1169Y696D01*
X0Y695D02*
X7Y695D01*
X261Y695D02*
X266Y695D01*
X415Y695D02*
X420Y695D01*
X1162Y695D02*
X1169Y695D01*
X0Y694D02*
X7Y694D01*
X265Y694D02*
X266Y694D01*
X415Y694D02*
X416Y694D01*
X1162Y694D02*
X1169Y694D01*
X0Y693D02*
X7Y693D01*
X265Y693D02*
X266Y693D01*
X415Y693D02*
X416Y693D01*
X1162Y693D02*
X1169Y693D01*
X0Y692D02*
X7Y692D01*
X265Y692D02*
X266Y692D01*
X415Y692D02*
X416Y692D01*
X1162Y692D02*
X1169Y692D01*
X0Y691D02*
X7Y691D01*
X265Y691D02*
X266Y691D01*
X415Y691D02*
X416Y691D01*
X1162Y691D02*
X1169Y691D01*
X0Y690D02*
X7Y690D01*
X265Y690D02*
X266Y690D01*
X415Y690D02*
X416Y690D01*
X1162Y690D02*
X1169Y690D01*
X0Y689D02*
X7Y689D01*
X265Y689D02*
X266Y689D01*
X415Y689D02*
X416Y689D01*
X1162Y689D02*
X1169Y689D01*
X0Y688D02*
X7Y688D01*
X265Y688D02*
X266Y688D01*
X415Y688D02*
X416Y688D01*
X1162Y688D02*
X1169Y688D01*
X0Y687D02*
X7Y687D01*
X265Y687D02*
X266Y687D01*
X415Y687D02*
X416Y687D01*
X1162Y687D02*
X1169Y687D01*
X0Y686D02*
X7Y686D01*
X265Y686D02*
X266Y686D01*
X415Y686D02*
X416Y686D01*
X1162Y686D02*
X1169Y686D01*
X0Y685D02*
X7Y685D01*
X265Y685D02*
X266Y685D01*
X415Y685D02*
X416Y685D01*
X1162Y685D02*
X1169Y685D01*
X0Y684D02*
X7Y684D01*
X265Y684D02*
X266Y684D01*
X415Y684D02*
X416Y684D01*
X1162Y684D02*
X1169Y684D01*
X0Y683D02*
X7Y683D01*
X265Y683D02*
X266Y683D01*
X415Y683D02*
X416Y683D01*
X1162Y683D02*
X1169Y683D01*
X0Y682D02*
X7Y682D01*
X265Y682D02*
X266Y682D01*
X415Y682D02*
X416Y682D01*
X1162Y682D02*
X1169Y682D01*
X0Y681D02*
X7Y681D01*
X265Y681D02*
X266Y681D01*
X415Y681D02*
X416Y681D01*
X1162Y681D02*
X1169Y681D01*
X0Y680D02*
X7Y680D01*
X265Y680D02*
X266Y680D01*
X415Y680D02*
X416Y680D01*
X1162Y680D02*
X1169Y680D01*
X0Y679D02*
X7Y679D01*
X265Y679D02*
X266Y679D01*
X415Y679D02*
X416Y679D01*
X1162Y679D02*
X1169Y679D01*
X0Y678D02*
X7Y678D01*
X265Y678D02*
X266Y678D01*
X415Y678D02*
X416Y678D01*
X1162Y678D02*
X1169Y678D01*
X0Y677D02*
X7Y677D01*
X265Y677D02*
X266Y677D01*
X415Y677D02*
X416Y677D01*
X1162Y677D02*
X1169Y677D01*
X0Y676D02*
X7Y676D01*
X265Y676D02*
X266Y676D01*
X415Y676D02*
X416Y676D01*
X1162Y676D02*
X1169Y676D01*
X0Y675D02*
X7Y675D01*
X265Y675D02*
X266Y675D01*
X415Y675D02*
X416Y675D01*
X1162Y675D02*
X1169Y675D01*
X0Y674D02*
X7Y674D01*
X265Y674D02*
X266Y674D01*
X415Y674D02*
X416Y674D01*
X1162Y674D02*
X1169Y674D01*
X0Y673D02*
X7Y673D01*
X265Y673D02*
X266Y673D01*
X415Y673D02*
X416Y673D01*
X1162Y673D02*
X1169Y673D01*
X0Y672D02*
X7Y672D01*
X265Y672D02*
X266Y672D01*
X415Y672D02*
X416Y672D01*
X1162Y672D02*
X1169Y672D01*
X0Y671D02*
X7Y671D01*
X265Y671D02*
X266Y671D01*
X415Y671D02*
X416Y671D01*
X1162Y671D02*
X1169Y671D01*
X0Y670D02*
X7Y670D01*
X265Y670D02*
X266Y670D01*
X415Y670D02*
X416Y670D01*
X1162Y670D02*
X1169Y670D01*
X0Y669D02*
X7Y669D01*
X265Y669D02*
X266Y669D01*
X415Y669D02*
X416Y669D01*
X1162Y669D02*
X1169Y669D01*
X0Y668D02*
X7Y668D01*
X265Y668D02*
X266Y668D01*
X415Y668D02*
X416Y668D01*
X1162Y668D02*
X1169Y668D01*
X0Y667D02*
X7Y667D01*
X265Y667D02*
X266Y667D01*
X415Y667D02*
X416Y667D01*
X1162Y667D02*
X1169Y667D01*
X0Y666D02*
X7Y666D01*
X265Y666D02*
X266Y666D01*
X415Y666D02*
X416Y666D01*
X1162Y666D02*
X1169Y666D01*
X0Y665D02*
X7Y665D01*
X265Y665D02*
X266Y665D01*
X415Y665D02*
X416Y665D01*
X1162Y665D02*
X1169Y665D01*
X0Y664D02*
X7Y664D01*
X265Y664D02*
X266Y664D01*
X415Y664D02*
X416Y664D01*
X1162Y664D02*
X1169Y664D01*
X0Y663D02*
X7Y663D01*
X265Y663D02*
X266Y663D01*
X415Y663D02*
X416Y663D01*
X1162Y663D02*
X1169Y663D01*
X0Y662D02*
X7Y662D01*
X265Y662D02*
X266Y662D01*
X415Y662D02*
X416Y662D01*
X1162Y662D02*
X1169Y662D01*
X0Y661D02*
X7Y661D01*
X265Y661D02*
X266Y661D01*
X415Y661D02*
X416Y661D01*
X1162Y661D02*
X1169Y661D01*
X0Y660D02*
X7Y660D01*
X265Y660D02*
X266Y660D01*
X415Y660D02*
X416Y660D01*
X1162Y660D02*
X1169Y660D01*
X0Y659D02*
X7Y659D01*
X265Y659D02*
X266Y659D01*
X415Y659D02*
X416Y659D01*
X1162Y659D02*
X1169Y659D01*
X0Y658D02*
X7Y658D01*
X261Y658D02*
X266Y658D01*
X415Y658D02*
X420Y658D01*
X1162Y658D02*
X1169Y658D01*
X0Y657D02*
X7Y657D01*
X261Y657D02*
X266Y657D01*
X415Y657D02*
X420Y657D01*
X1162Y657D02*
X1169Y657D01*
X0Y656D02*
X7Y656D01*
X261Y656D02*
X266Y656D01*
X415Y656D02*
X420Y656D01*
X1162Y656D02*
X1169Y656D01*
X0Y655D02*
X7Y655D01*
X261Y655D02*
X266Y655D01*
X415Y655D02*
X420Y655D01*
X1162Y655D02*
X1169Y655D01*
X0Y654D02*
X7Y654D01*
X261Y654D02*
X266Y654D01*
X415Y654D02*
X420Y654D01*
X1162Y654D02*
X1169Y654D01*
X0Y653D02*
X7Y653D01*
X261Y653D02*
X266Y653D01*
X415Y653D02*
X420Y653D01*
X1162Y653D02*
X1169Y653D01*
X0Y652D02*
X7Y652D01*
X261Y652D02*
X266Y652D01*
X415Y652D02*
X420Y652D01*
X1162Y652D02*
X1169Y652D01*
X0Y651D02*
X7Y651D01*
X261Y651D02*
X266Y651D01*
X415Y651D02*
X420Y651D01*
X1162Y651D02*
X1169Y651D01*
X0Y650D02*
X7Y650D01*
X261Y650D02*
X266Y650D01*
X415Y650D02*
X420Y650D01*
X1162Y650D02*
X1169Y650D01*
X0Y649D02*
X7Y649D01*
X261Y649D02*
X266Y649D01*
X415Y649D02*
X420Y649D01*
X1162Y649D02*
X1169Y649D01*
X0Y648D02*
X7Y648D01*
X261Y648D02*
X266Y648D01*
X415Y648D02*
X420Y648D01*
X1162Y648D02*
X1169Y648D01*
X0Y647D02*
X7Y647D01*
X261Y647D02*
X266Y647D01*
X415Y647D02*
X420Y647D01*
X1162Y647D02*
X1169Y647D01*
X0Y646D02*
X7Y646D01*
X261Y646D02*
X266Y646D01*
X415Y646D02*
X420Y646D01*
X1162Y646D02*
X1169Y646D01*
X0Y645D02*
X7Y645D01*
X261Y645D02*
X266Y645D01*
X415Y645D02*
X420Y645D01*
X1162Y645D02*
X1169Y645D01*
X0Y644D02*
X7Y644D01*
X265Y644D02*
X266Y644D01*
X415Y644D02*
X416Y644D01*
X1162Y644D02*
X1169Y644D01*
X0Y643D02*
X7Y643D01*
X265Y643D02*
X266Y643D01*
X415Y643D02*
X416Y643D01*
X1162Y643D02*
X1169Y643D01*
X0Y642D02*
X7Y642D01*
X265Y642D02*
X266Y642D01*
X415Y642D02*
X416Y642D01*
X742Y642D02*
X744Y642D01*
X869Y642D02*
X872Y642D01*
X1162Y642D02*
X1169Y642D01*
X0Y641D02*
X7Y641D01*
X265Y641D02*
X266Y641D01*
X415Y641D02*
X416Y641D01*
X739Y641D02*
X744Y641D01*
X869Y641D02*
X875Y641D01*
X1162Y641D02*
X1169Y641D01*
X0Y640D02*
X7Y640D01*
X265Y640D02*
X266Y640D01*
X415Y640D02*
X416Y640D01*
X737Y640D02*
X744Y640D01*
X869Y640D02*
X877Y640D01*
X1162Y640D02*
X1169Y640D01*
X0Y639D02*
X7Y639D01*
X265Y639D02*
X266Y639D01*
X415Y639D02*
X416Y639D01*
X735Y639D02*
X744Y639D01*
X869Y639D02*
X878Y639D01*
X1162Y639D02*
X1169Y639D01*
X0Y638D02*
X7Y638D01*
X265Y638D02*
X266Y638D01*
X415Y638D02*
X416Y638D01*
X734Y638D02*
X744Y638D01*
X869Y638D02*
X880Y638D01*
X1162Y638D02*
X1169Y638D01*
X0Y637D02*
X7Y637D01*
X265Y637D02*
X266Y637D01*
X415Y637D02*
X416Y637D01*
X733Y637D02*
X744Y637D01*
X869Y637D02*
X881Y637D01*
X1162Y637D02*
X1169Y637D01*
X0Y636D02*
X7Y636D01*
X265Y636D02*
X266Y636D01*
X415Y636D02*
X416Y636D01*
X732Y636D02*
X741Y636D01*
X872Y636D02*
X882Y636D01*
X1162Y636D02*
X1169Y636D01*
X0Y635D02*
X7Y635D01*
X265Y635D02*
X266Y635D01*
X415Y635D02*
X416Y635D01*
X731Y635D02*
X739Y635D01*
X875Y635D02*
X883Y635D01*
X1162Y635D02*
X1169Y635D01*
X0Y634D02*
X7Y634D01*
X265Y634D02*
X266Y634D01*
X415Y634D02*
X416Y634D01*
X731Y634D02*
X737Y634D01*
X877Y634D02*
X883Y634D01*
X1162Y634D02*
X1169Y634D01*
X0Y633D02*
X7Y633D01*
X265Y633D02*
X266Y633D01*
X415Y633D02*
X416Y633D01*
X730Y633D02*
X736Y633D01*
X878Y633D02*
X884Y633D01*
X1162Y633D02*
X1169Y633D01*
X0Y632D02*
X7Y632D01*
X265Y632D02*
X266Y632D01*
X415Y632D02*
X416Y632D01*
X731Y632D02*
X735Y632D01*
X879Y632D02*
X882Y632D01*
X1162Y632D02*
X1169Y632D01*
X0Y631D02*
X7Y631D01*
X265Y631D02*
X266Y631D01*
X415Y631D02*
X416Y631D01*
X731Y631D02*
X734Y631D01*
X880Y631D02*
X882Y631D01*
X1162Y631D02*
X1169Y631D01*
X0Y630D02*
X7Y630D01*
X265Y630D02*
X266Y630D01*
X415Y630D02*
X416Y630D01*
X731Y630D02*
X734Y630D01*
X880Y630D02*
X882Y630D01*
X1162Y630D02*
X1169Y630D01*
X0Y629D02*
X7Y629D01*
X265Y629D02*
X266Y629D01*
X415Y629D02*
X416Y629D01*
X731Y629D02*
X733Y629D01*
X880Y629D02*
X882Y629D01*
X1162Y629D02*
X1169Y629D01*
X0Y628D02*
X7Y628D01*
X265Y628D02*
X266Y628D01*
X415Y628D02*
X416Y628D01*
X731Y628D02*
X733Y628D01*
X881Y628D02*
X882Y628D01*
X1162Y628D02*
X1169Y628D01*
X0Y627D02*
X7Y627D01*
X265Y627D02*
X266Y627D01*
X415Y627D02*
X416Y627D01*
X731Y627D02*
X733Y627D01*
X881Y627D02*
X882Y627D01*
X1162Y627D02*
X1169Y627D01*
X0Y626D02*
X7Y626D01*
X265Y626D02*
X266Y626D01*
X415Y626D02*
X416Y626D01*
X731Y626D02*
X733Y626D01*
X881Y626D02*
X882Y626D01*
X1162Y626D02*
X1169Y626D01*
X0Y625D02*
X7Y625D01*
X265Y625D02*
X266Y625D01*
X415Y625D02*
X416Y625D01*
X731Y625D02*
X733Y625D01*
X881Y625D02*
X882Y625D01*
X1162Y625D02*
X1169Y625D01*
X0Y624D02*
X7Y624D01*
X265Y624D02*
X266Y624D01*
X415Y624D02*
X416Y624D01*
X731Y624D02*
X732Y624D01*
X881Y624D02*
X882Y624D01*
X1162Y624D02*
X1169Y624D01*
X0Y623D02*
X7Y623D01*
X265Y623D02*
X266Y623D01*
X415Y623D02*
X416Y623D01*
X731Y623D02*
X732Y623D01*
X881Y623D02*
X882Y623D01*
X1162Y623D02*
X1169Y623D01*
X0Y622D02*
X7Y622D01*
X265Y622D02*
X266Y622D01*
X415Y622D02*
X416Y622D01*
X731Y622D02*
X732Y622D01*
X881Y622D02*
X882Y622D01*
X1162Y622D02*
X1169Y622D01*
X0Y621D02*
X7Y621D01*
X265Y621D02*
X266Y621D01*
X415Y621D02*
X416Y621D01*
X731Y621D02*
X732Y621D01*
X881Y621D02*
X882Y621D01*
X1162Y621D02*
X1169Y621D01*
X0Y620D02*
X7Y620D01*
X265Y620D02*
X266Y620D01*
X415Y620D02*
X416Y620D01*
X731Y620D02*
X732Y620D01*
X881Y620D02*
X882Y620D01*
X1162Y620D02*
X1169Y620D01*
X0Y619D02*
X7Y619D01*
X265Y619D02*
X266Y619D01*
X415Y619D02*
X416Y619D01*
X731Y619D02*
X732Y619D01*
X881Y619D02*
X882Y619D01*
X1162Y619D02*
X1169Y619D01*
X0Y618D02*
X7Y618D01*
X265Y618D02*
X266Y618D01*
X415Y618D02*
X416Y618D01*
X731Y618D02*
X732Y618D01*
X881Y618D02*
X882Y618D01*
X1162Y618D02*
X1169Y618D01*
X0Y617D02*
X7Y617D01*
X265Y617D02*
X266Y617D01*
X415Y617D02*
X416Y617D01*
X731Y617D02*
X732Y617D01*
X881Y617D02*
X882Y617D01*
X1162Y617D02*
X1169Y617D01*
X0Y616D02*
X7Y616D01*
X265Y616D02*
X266Y616D01*
X415Y616D02*
X416Y616D01*
X731Y616D02*
X732Y616D01*
X881Y616D02*
X882Y616D01*
X1162Y616D02*
X1169Y616D01*
X0Y615D02*
X7Y615D01*
X265Y615D02*
X266Y615D01*
X415Y615D02*
X416Y615D01*
X731Y615D02*
X732Y615D01*
X881Y615D02*
X882Y615D01*
X1162Y615D02*
X1169Y615D01*
X0Y614D02*
X7Y614D01*
X265Y614D02*
X266Y614D01*
X415Y614D02*
X416Y614D01*
X731Y614D02*
X732Y614D01*
X881Y614D02*
X882Y614D01*
X1162Y614D02*
X1169Y614D01*
X0Y613D02*
X7Y613D01*
X265Y613D02*
X266Y613D01*
X415Y613D02*
X416Y613D01*
X731Y613D02*
X732Y613D01*
X881Y613D02*
X882Y613D01*
X1162Y613D02*
X1169Y613D01*
X0Y612D02*
X7Y612D01*
X265Y612D02*
X266Y612D01*
X415Y612D02*
X416Y612D01*
X731Y612D02*
X732Y612D01*
X881Y612D02*
X882Y612D01*
X1162Y612D02*
X1169Y612D01*
X0Y611D02*
X7Y611D01*
X265Y611D02*
X266Y611D01*
X414Y611D02*
X416Y611D01*
X731Y611D02*
X732Y611D01*
X881Y611D02*
X882Y611D01*
X1162Y611D02*
X1169Y611D01*
X0Y610D02*
X7Y610D01*
X265Y610D02*
X267Y610D01*
X414Y610D02*
X416Y610D01*
X731Y610D02*
X732Y610D01*
X881Y610D02*
X882Y610D01*
X1162Y610D02*
X1169Y610D01*
X0Y609D02*
X7Y609D01*
X265Y609D02*
X267Y609D01*
X414Y609D02*
X416Y609D01*
X731Y609D02*
X732Y609D01*
X881Y609D02*
X882Y609D01*
X1162Y609D02*
X1169Y609D01*
X0Y608D02*
X7Y608D01*
X262Y608D02*
X268Y608D01*
X413Y608D02*
X418Y608D01*
X731Y608D02*
X732Y608D01*
X881Y608D02*
X882Y608D01*
X1162Y608D02*
X1169Y608D01*
X0Y607D02*
X7Y607D01*
X263Y607D02*
X268Y607D01*
X412Y607D02*
X418Y607D01*
X731Y607D02*
X732Y607D01*
X881Y607D02*
X882Y607D01*
X1162Y607D02*
X1169Y607D01*
X0Y606D02*
X7Y606D01*
X263Y606D02*
X269Y606D01*
X412Y606D02*
X417Y606D01*
X731Y606D02*
X732Y606D01*
X881Y606D02*
X882Y606D01*
X1162Y606D02*
X1169Y606D01*
X0Y605D02*
X7Y605D01*
X264Y605D02*
X270Y605D01*
X411Y605D02*
X417Y605D01*
X731Y605D02*
X732Y605D01*
X881Y605D02*
X882Y605D01*
X1162Y605D02*
X1169Y605D01*
X0Y604D02*
X7Y604D01*
X264Y604D02*
X271Y604D01*
X409Y604D02*
X416Y604D01*
X731Y604D02*
X732Y604D01*
X881Y604D02*
X882Y604D01*
X1162Y604D02*
X1169Y604D01*
X0Y603D02*
X7Y603D01*
X265Y603D02*
X274Y603D01*
X407Y603D02*
X415Y603D01*
X731Y603D02*
X732Y603D01*
X881Y603D02*
X882Y603D01*
X1162Y603D02*
X1169Y603D01*
X0Y602D02*
X7Y602D01*
X266Y602D02*
X279Y602D01*
X402Y602D02*
X414Y602D01*
X731Y602D02*
X732Y602D01*
X881Y602D02*
X882Y602D01*
X1162Y602D02*
X1169Y602D01*
X0Y601D02*
X7Y601D01*
X267Y601D02*
X280Y601D01*
X400Y601D02*
X413Y601D01*
X731Y601D02*
X732Y601D01*
X881Y601D02*
X882Y601D01*
X1162Y601D02*
X1169Y601D01*
X0Y600D02*
X7Y600D01*
X268Y600D02*
X281Y600D01*
X400Y600D02*
X412Y600D01*
X731Y600D02*
X732Y600D01*
X881Y600D02*
X882Y600D01*
X1162Y600D02*
X1169Y600D01*
X0Y599D02*
X7Y599D01*
X270Y599D02*
X281Y599D01*
X400Y599D02*
X411Y599D01*
X731Y599D02*
X732Y599D01*
X881Y599D02*
X882Y599D01*
X1162Y599D02*
X1169Y599D01*
X0Y598D02*
X7Y598D01*
X272Y598D02*
X280Y598D01*
X400Y598D02*
X409Y598D01*
X731Y598D02*
X732Y598D01*
X881Y598D02*
X882Y598D01*
X1162Y598D02*
X1169Y598D01*
X0Y597D02*
X7Y597D01*
X275Y597D02*
X280Y597D01*
X401Y597D02*
X406Y597D01*
X731Y597D02*
X732Y597D01*
X881Y597D02*
X882Y597D01*
X1162Y597D02*
X1169Y597D01*
X0Y596D02*
X7Y596D01*
X727Y596D02*
X732Y596D01*
X881Y596D02*
X886Y596D01*
X1162Y596D02*
X1169Y596D01*
X0Y595D02*
X7Y595D01*
X727Y595D02*
X732Y595D01*
X881Y595D02*
X886Y595D01*
X1162Y595D02*
X1169Y595D01*
X0Y594D02*
X7Y594D01*
X727Y594D02*
X732Y594D01*
X881Y594D02*
X886Y594D01*
X1162Y594D02*
X1169Y594D01*
X0Y593D02*
X7Y593D01*
X727Y593D02*
X732Y593D01*
X881Y593D02*
X886Y593D01*
X1162Y593D02*
X1169Y593D01*
X0Y592D02*
X7Y592D01*
X727Y592D02*
X732Y592D01*
X881Y592D02*
X886Y592D01*
X1162Y592D02*
X1169Y592D01*
X0Y591D02*
X7Y591D01*
X727Y591D02*
X732Y591D01*
X881Y591D02*
X886Y591D01*
X1162Y591D02*
X1169Y591D01*
X0Y590D02*
X7Y590D01*
X727Y590D02*
X732Y590D01*
X881Y590D02*
X886Y590D01*
X1162Y590D02*
X1169Y590D01*
X0Y589D02*
X7Y589D01*
X727Y589D02*
X732Y589D01*
X881Y589D02*
X886Y589D01*
X1162Y589D02*
X1169Y589D01*
X0Y588D02*
X7Y588D01*
X727Y588D02*
X732Y588D01*
X881Y588D02*
X886Y588D01*
X1162Y588D02*
X1169Y588D01*
X0Y587D02*
X7Y587D01*
X727Y587D02*
X732Y587D01*
X881Y587D02*
X886Y587D01*
X1162Y587D02*
X1169Y587D01*
X0Y586D02*
X7Y586D01*
X727Y586D02*
X732Y586D01*
X881Y586D02*
X886Y586D01*
X1162Y586D02*
X1169Y586D01*
X0Y585D02*
X7Y585D01*
X727Y585D02*
X732Y585D01*
X881Y585D02*
X886Y585D01*
X1162Y585D02*
X1169Y585D01*
X0Y584D02*
X7Y584D01*
X727Y584D02*
X732Y584D01*
X881Y584D02*
X886Y584D01*
X1162Y584D02*
X1169Y584D01*
X0Y583D02*
X7Y583D01*
X727Y583D02*
X732Y583D01*
X881Y583D02*
X886Y583D01*
X1162Y583D02*
X1169Y583D01*
X0Y582D02*
X7Y582D01*
X731Y582D02*
X732Y582D01*
X881Y582D02*
X882Y582D01*
X1162Y582D02*
X1169Y582D01*
X0Y581D02*
X7Y581D01*
X731Y581D02*
X732Y581D01*
X881Y581D02*
X882Y581D01*
X1162Y581D02*
X1169Y581D01*
X0Y580D02*
X7Y580D01*
X731Y580D02*
X732Y580D01*
X881Y580D02*
X882Y580D01*
X1162Y580D02*
X1169Y580D01*
X0Y579D02*
X7Y579D01*
X731Y579D02*
X732Y579D01*
X881Y579D02*
X882Y579D01*
X1162Y579D02*
X1169Y579D01*
X0Y578D02*
X7Y578D01*
X731Y578D02*
X732Y578D01*
X881Y578D02*
X882Y578D01*
X1162Y578D02*
X1169Y578D01*
X0Y577D02*
X7Y577D01*
X731Y577D02*
X732Y577D01*
X881Y577D02*
X882Y577D01*
X1162Y577D02*
X1169Y577D01*
X0Y576D02*
X7Y576D01*
X731Y576D02*
X732Y576D01*
X881Y576D02*
X882Y576D01*
X1162Y576D02*
X1169Y576D01*
X0Y575D02*
X7Y575D01*
X731Y575D02*
X732Y575D01*
X881Y575D02*
X882Y575D01*
X1162Y575D02*
X1169Y575D01*
X0Y574D02*
X7Y574D01*
X731Y574D02*
X732Y574D01*
X881Y574D02*
X882Y574D01*
X1162Y574D02*
X1169Y574D01*
X0Y573D02*
X7Y573D01*
X275Y573D02*
X278Y573D01*
X403Y573D02*
X406Y573D01*
X731Y573D02*
X732Y573D01*
X881Y573D02*
X882Y573D01*
X1162Y573D02*
X1169Y573D01*
X0Y572D02*
X7Y572D01*
X272Y572D02*
X278Y572D01*
X403Y572D02*
X409Y572D01*
X731Y572D02*
X732Y572D01*
X881Y572D02*
X882Y572D01*
X1162Y572D02*
X1169Y572D01*
X0Y571D02*
X7Y571D01*
X270Y571D02*
X278Y571D01*
X403Y571D02*
X410Y571D01*
X731Y571D02*
X732Y571D01*
X881Y571D02*
X882Y571D01*
X1162Y571D02*
X1169Y571D01*
X0Y570D02*
X7Y570D01*
X269Y570D02*
X278Y570D01*
X319Y570D02*
X321Y570D01*
X359Y570D02*
X361Y570D01*
X403Y570D02*
X412Y570D01*
X731Y570D02*
X732Y570D01*
X881Y570D02*
X882Y570D01*
X1162Y570D02*
X1169Y570D01*
X0Y569D02*
X7Y569D01*
X267Y569D02*
X278Y569D01*
X319Y569D02*
X321Y569D01*
X359Y569D02*
X361Y569D01*
X403Y569D02*
X413Y569D01*
X731Y569D02*
X732Y569D01*
X881Y569D02*
X882Y569D01*
X1162Y569D02*
X1169Y569D01*
X0Y568D02*
X7Y568D01*
X266Y568D02*
X278Y568D01*
X319Y568D02*
X322Y568D01*
X359Y568D02*
X361Y568D01*
X403Y568D02*
X414Y568D01*
X731Y568D02*
X732Y568D01*
X881Y568D02*
X882Y568D01*
X1162Y568D02*
X1169Y568D01*
X0Y567D02*
X7Y567D01*
X265Y567D02*
X274Y567D01*
X320Y567D02*
X322Y567D01*
X359Y567D02*
X361Y567D01*
X406Y567D02*
X415Y567D01*
X731Y567D02*
X732Y567D01*
X881Y567D02*
X882Y567D01*
X1162Y567D02*
X1169Y567D01*
X0Y566D02*
X7Y566D01*
X265Y566D02*
X272Y566D01*
X320Y566D02*
X322Y566D01*
X359Y566D02*
X361Y566D01*
X409Y566D02*
X416Y566D01*
X731Y566D02*
X732Y566D01*
X881Y566D02*
X882Y566D01*
X1162Y566D02*
X1169Y566D01*
X0Y565D02*
X7Y565D01*
X264Y565D02*
X270Y565D01*
X320Y565D02*
X322Y565D01*
X358Y565D02*
X360Y565D01*
X410Y565D02*
X417Y565D01*
X731Y565D02*
X732Y565D01*
X881Y565D02*
X882Y565D01*
X1162Y565D02*
X1169Y565D01*
X0Y564D02*
X7Y564D01*
X263Y564D02*
X269Y564D01*
X320Y564D02*
X323Y564D01*
X358Y564D02*
X360Y564D01*
X411Y564D02*
X417Y564D01*
X731Y564D02*
X732Y564D01*
X881Y564D02*
X882Y564D01*
X1162Y564D02*
X1169Y564D01*
X0Y563D02*
X7Y563D01*
X265Y563D02*
X268Y563D01*
X321Y563D02*
X323Y563D01*
X358Y563D02*
X360Y563D01*
X412Y563D02*
X416Y563D01*
X731Y563D02*
X732Y563D01*
X881Y563D02*
X882Y563D01*
X1162Y563D02*
X1169Y563D01*
X0Y562D02*
X7Y562D01*
X265Y562D02*
X268Y562D01*
X321Y562D02*
X323Y562D01*
X357Y562D02*
X359Y562D01*
X413Y562D02*
X416Y562D01*
X731Y562D02*
X732Y562D01*
X881Y562D02*
X882Y562D01*
X1162Y562D02*
X1169Y562D01*
X0Y561D02*
X7Y561D01*
X265Y561D02*
X267Y561D01*
X322Y561D02*
X324Y561D01*
X357Y561D02*
X359Y561D01*
X414Y561D02*
X416Y561D01*
X731Y561D02*
X732Y561D01*
X881Y561D02*
X882Y561D01*
X1162Y561D02*
X1169Y561D01*
X0Y560D02*
X7Y560D01*
X265Y560D02*
X267Y560D01*
X322Y560D02*
X325Y560D01*
X356Y560D02*
X358Y560D01*
X414Y560D02*
X416Y560D01*
X731Y560D02*
X732Y560D01*
X881Y560D02*
X882Y560D01*
X1162Y560D02*
X1169Y560D01*
X0Y559D02*
X7Y559D01*
X265Y559D02*
X266Y559D01*
X323Y559D02*
X325Y559D01*
X355Y559D02*
X358Y559D01*
X414Y559D02*
X416Y559D01*
X731Y559D02*
X732Y559D01*
X881Y559D02*
X882Y559D01*
X1162Y559D02*
X1169Y559D01*
X0Y558D02*
X7Y558D01*
X265Y558D02*
X266Y558D01*
X324Y558D02*
X326Y558D01*
X354Y558D02*
X357Y558D01*
X414Y558D02*
X416Y558D01*
X731Y558D02*
X732Y558D01*
X881Y558D02*
X882Y558D01*
X1162Y558D02*
X1169Y558D01*
X0Y557D02*
X7Y557D01*
X265Y557D02*
X266Y557D01*
X324Y557D02*
X327Y557D01*
X354Y557D02*
X356Y557D01*
X415Y557D02*
X416Y557D01*
X731Y557D02*
X732Y557D01*
X881Y557D02*
X882Y557D01*
X1162Y557D02*
X1169Y557D01*
X0Y556D02*
X7Y556D01*
X265Y556D02*
X266Y556D01*
X290Y556D02*
X297Y556D01*
X325Y556D02*
X328Y556D01*
X352Y556D02*
X355Y556D01*
X415Y556D02*
X416Y556D01*
X731Y556D02*
X732Y556D01*
X881Y556D02*
X882Y556D01*
X1162Y556D02*
X1169Y556D01*
X0Y555D02*
X7Y555D01*
X265Y555D02*
X266Y555D01*
X288Y555D02*
X299Y555D01*
X326Y555D02*
X330Y555D01*
X351Y555D02*
X354Y555D01*
X415Y555D02*
X416Y555D01*
X731Y555D02*
X732Y555D01*
X881Y555D02*
X882Y555D01*
X1162Y555D02*
X1169Y555D01*
X0Y554D02*
X7Y554D01*
X265Y554D02*
X266Y554D01*
X287Y554D02*
X301Y554D01*
X327Y554D02*
X331Y554D01*
X349Y554D02*
X353Y554D01*
X415Y554D02*
X416Y554D01*
X731Y554D02*
X732Y554D01*
X881Y554D02*
X882Y554D01*
X1162Y554D02*
X1169Y554D01*
X0Y553D02*
X7Y553D01*
X265Y553D02*
X266Y553D01*
X286Y553D02*
X302Y553D01*
X329Y553D02*
X334Y553D01*
X347Y553D02*
X352Y553D01*
X415Y553D02*
X416Y553D01*
X731Y553D02*
X732Y553D01*
X881Y553D02*
X882Y553D01*
X1162Y553D02*
X1169Y553D01*
X0Y552D02*
X7Y552D01*
X265Y552D02*
X266Y552D01*
X285Y552D02*
X303Y552D01*
X330Y552D02*
X350Y552D01*
X415Y552D02*
X416Y552D01*
X731Y552D02*
X732Y552D01*
X881Y552D02*
X882Y552D01*
X1162Y552D02*
X1169Y552D01*
X0Y551D02*
X7Y551D01*
X265Y551D02*
X266Y551D01*
X285Y551D02*
X303Y551D01*
X332Y551D02*
X349Y551D01*
X415Y551D02*
X416Y551D01*
X731Y551D02*
X732Y551D01*
X881Y551D02*
X882Y551D01*
X1162Y551D02*
X1169Y551D01*
X0Y550D02*
X7Y550D01*
X265Y550D02*
X266Y550D01*
X284Y550D02*
X304Y550D01*
X335Y550D02*
X346Y550D01*
X415Y550D02*
X416Y550D01*
X731Y550D02*
X732Y550D01*
X881Y550D02*
X882Y550D01*
X1162Y550D02*
X1169Y550D01*
X0Y549D02*
X7Y549D01*
X265Y549D02*
X266Y549D01*
X284Y549D02*
X304Y549D01*
X415Y549D02*
X416Y549D01*
X731Y549D02*
X732Y549D01*
X881Y549D02*
X882Y549D01*
X1162Y549D02*
X1169Y549D01*
X0Y548D02*
X7Y548D01*
X265Y548D02*
X266Y548D01*
X283Y548D02*
X304Y548D01*
X415Y548D02*
X416Y548D01*
X731Y548D02*
X732Y548D01*
X881Y548D02*
X882Y548D01*
X1162Y548D02*
X1169Y548D01*
X0Y547D02*
X7Y547D01*
X265Y547D02*
X266Y547D01*
X283Y547D02*
X304Y547D01*
X415Y547D02*
X416Y547D01*
X731Y547D02*
X732Y547D01*
X881Y547D02*
X882Y547D01*
X1162Y547D02*
X1169Y547D01*
X0Y546D02*
X7Y546D01*
X265Y546D02*
X266Y546D01*
X283Y546D02*
X305Y546D01*
X415Y546D02*
X416Y546D01*
X727Y546D02*
X732Y546D01*
X881Y546D02*
X886Y546D01*
X1162Y546D02*
X1169Y546D01*
X0Y545D02*
X7Y545D01*
X265Y545D02*
X266Y545D01*
X283Y545D02*
X305Y545D01*
X415Y545D02*
X416Y545D01*
X727Y545D02*
X732Y545D01*
X881Y545D02*
X886Y545D01*
X1162Y545D02*
X1169Y545D01*
X0Y544D02*
X7Y544D01*
X265Y544D02*
X266Y544D01*
X283Y544D02*
X304Y544D01*
X415Y544D02*
X416Y544D01*
X727Y544D02*
X732Y544D01*
X881Y544D02*
X886Y544D01*
X1162Y544D02*
X1169Y544D01*
X0Y543D02*
X7Y543D01*
X265Y543D02*
X266Y543D01*
X283Y543D02*
X304Y543D01*
X415Y543D02*
X416Y543D01*
X727Y543D02*
X732Y543D01*
X881Y543D02*
X886Y543D01*
X1162Y543D02*
X1169Y543D01*
X0Y542D02*
X7Y542D01*
X265Y542D02*
X266Y542D01*
X284Y542D02*
X304Y542D01*
X415Y542D02*
X416Y542D01*
X727Y542D02*
X732Y542D01*
X881Y542D02*
X886Y542D01*
X1162Y542D02*
X1169Y542D01*
X0Y541D02*
X7Y541D01*
X265Y541D02*
X266Y541D01*
X284Y541D02*
X304Y541D01*
X415Y541D02*
X416Y541D01*
X727Y541D02*
X732Y541D01*
X881Y541D02*
X886Y541D01*
X1162Y541D02*
X1169Y541D01*
X0Y540D02*
X7Y540D01*
X265Y540D02*
X266Y540D01*
X285Y540D02*
X303Y540D01*
X415Y540D02*
X416Y540D01*
X727Y540D02*
X732Y540D01*
X881Y540D02*
X886Y540D01*
X1162Y540D02*
X1169Y540D01*
X0Y539D02*
X7Y539D01*
X265Y539D02*
X266Y539D01*
X285Y539D02*
X302Y539D01*
X415Y539D02*
X416Y539D01*
X727Y539D02*
X732Y539D01*
X881Y539D02*
X886Y539D01*
X1162Y539D02*
X1169Y539D01*
X0Y538D02*
X7Y538D01*
X265Y538D02*
X266Y538D01*
X286Y538D02*
X302Y538D01*
X415Y538D02*
X416Y538D01*
X727Y538D02*
X732Y538D01*
X881Y538D02*
X886Y538D01*
X1162Y538D02*
X1169Y538D01*
X0Y537D02*
X7Y537D01*
X265Y537D02*
X266Y537D01*
X287Y537D02*
X300Y537D01*
X415Y537D02*
X416Y537D01*
X727Y537D02*
X732Y537D01*
X881Y537D02*
X886Y537D01*
X1162Y537D02*
X1169Y537D01*
X0Y536D02*
X7Y536D01*
X265Y536D02*
X266Y536D01*
X289Y536D02*
X299Y536D01*
X415Y536D02*
X416Y536D01*
X727Y536D02*
X732Y536D01*
X881Y536D02*
X886Y536D01*
X1162Y536D02*
X1169Y536D01*
X0Y535D02*
X7Y535D01*
X265Y535D02*
X266Y535D01*
X291Y535D02*
X297Y535D01*
X415Y535D02*
X416Y535D01*
X727Y535D02*
X732Y535D01*
X881Y535D02*
X886Y535D01*
X1162Y535D02*
X1169Y535D01*
X0Y534D02*
X7Y534D01*
X265Y534D02*
X266Y534D01*
X415Y534D02*
X416Y534D01*
X727Y534D02*
X732Y534D01*
X881Y534D02*
X886Y534D01*
X1162Y534D02*
X1169Y534D01*
X0Y533D02*
X7Y533D01*
X265Y533D02*
X266Y533D01*
X415Y533D02*
X416Y533D01*
X727Y533D02*
X732Y533D01*
X881Y533D02*
X886Y533D01*
X1162Y533D02*
X1169Y533D01*
X0Y532D02*
X7Y532D01*
X265Y532D02*
X266Y532D01*
X415Y532D02*
X416Y532D01*
X731Y532D02*
X732Y532D01*
X881Y532D02*
X882Y532D01*
X1162Y532D02*
X1169Y532D01*
X0Y531D02*
X7Y531D01*
X265Y531D02*
X266Y531D01*
X415Y531D02*
X416Y531D01*
X731Y531D02*
X732Y531D01*
X881Y531D02*
X882Y531D01*
X1162Y531D02*
X1169Y531D01*
X0Y530D02*
X7Y530D01*
X265Y530D02*
X266Y530D01*
X415Y530D02*
X416Y530D01*
X731Y530D02*
X732Y530D01*
X881Y530D02*
X882Y530D01*
X1162Y530D02*
X1169Y530D01*
X0Y529D02*
X7Y529D01*
X265Y529D02*
X266Y529D01*
X415Y529D02*
X416Y529D01*
X731Y529D02*
X732Y529D01*
X881Y529D02*
X882Y529D01*
X1162Y529D02*
X1169Y529D01*
X0Y528D02*
X7Y528D01*
X265Y528D02*
X266Y528D01*
X415Y528D02*
X416Y528D01*
X731Y528D02*
X732Y528D01*
X881Y528D02*
X882Y528D01*
X1162Y528D02*
X1169Y528D01*
X0Y527D02*
X7Y527D01*
X261Y527D02*
X266Y527D01*
X415Y527D02*
X420Y527D01*
X731Y527D02*
X732Y527D01*
X881Y527D02*
X882Y527D01*
X1162Y527D02*
X1169Y527D01*
X0Y526D02*
X7Y526D01*
X261Y526D02*
X266Y526D01*
X415Y526D02*
X420Y526D01*
X731Y526D02*
X732Y526D01*
X881Y526D02*
X882Y526D01*
X1162Y526D02*
X1169Y526D01*
X0Y525D02*
X7Y525D01*
X261Y525D02*
X266Y525D01*
X415Y525D02*
X420Y525D01*
X731Y525D02*
X732Y525D01*
X881Y525D02*
X882Y525D01*
X1162Y525D02*
X1169Y525D01*
X0Y524D02*
X7Y524D01*
X261Y524D02*
X266Y524D01*
X415Y524D02*
X420Y524D01*
X731Y524D02*
X732Y524D01*
X881Y524D02*
X882Y524D01*
X1162Y524D02*
X1169Y524D01*
X0Y523D02*
X7Y523D01*
X261Y523D02*
X266Y523D01*
X415Y523D02*
X420Y523D01*
X731Y523D02*
X732Y523D01*
X881Y523D02*
X882Y523D01*
X1162Y523D02*
X1169Y523D01*
X0Y522D02*
X7Y522D01*
X261Y522D02*
X266Y522D01*
X415Y522D02*
X420Y522D01*
X731Y522D02*
X732Y522D01*
X881Y522D02*
X882Y522D01*
X1162Y522D02*
X1169Y522D01*
X0Y521D02*
X7Y521D01*
X261Y521D02*
X266Y521D01*
X415Y521D02*
X420Y521D01*
X731Y521D02*
X732Y521D01*
X881Y521D02*
X882Y521D01*
X1162Y521D02*
X1169Y521D01*
X0Y520D02*
X7Y520D01*
X261Y520D02*
X266Y520D01*
X415Y520D02*
X420Y520D01*
X731Y520D02*
X732Y520D01*
X881Y520D02*
X882Y520D01*
X1162Y520D02*
X1169Y520D01*
X0Y519D02*
X7Y519D01*
X261Y519D02*
X266Y519D01*
X415Y519D02*
X420Y519D01*
X731Y519D02*
X732Y519D01*
X881Y519D02*
X882Y519D01*
X1162Y519D02*
X1169Y519D01*
X0Y518D02*
X7Y518D01*
X261Y518D02*
X266Y518D01*
X415Y518D02*
X420Y518D01*
X731Y518D02*
X732Y518D01*
X881Y518D02*
X882Y518D01*
X1162Y518D02*
X1169Y518D01*
X0Y517D02*
X7Y517D01*
X261Y517D02*
X266Y517D01*
X415Y517D02*
X420Y517D01*
X731Y517D02*
X732Y517D01*
X881Y517D02*
X882Y517D01*
X1162Y517D02*
X1169Y517D01*
X0Y516D02*
X7Y516D01*
X261Y516D02*
X266Y516D01*
X415Y516D02*
X420Y516D01*
X731Y516D02*
X732Y516D01*
X881Y516D02*
X882Y516D01*
X1162Y516D02*
X1169Y516D01*
X0Y515D02*
X7Y515D01*
X261Y515D02*
X266Y515D01*
X415Y515D02*
X420Y515D01*
X731Y515D02*
X732Y515D01*
X881Y515D02*
X882Y515D01*
X1162Y515D02*
X1169Y515D01*
X0Y514D02*
X7Y514D01*
X261Y514D02*
X266Y514D01*
X415Y514D02*
X420Y514D01*
X731Y514D02*
X732Y514D01*
X881Y514D02*
X882Y514D01*
X1162Y514D02*
X1169Y514D01*
X0Y513D02*
X7Y513D01*
X265Y513D02*
X266Y513D01*
X415Y513D02*
X416Y513D01*
X731Y513D02*
X732Y513D01*
X881Y513D02*
X882Y513D01*
X1162Y513D02*
X1169Y513D01*
X0Y512D02*
X7Y512D01*
X265Y512D02*
X266Y512D01*
X415Y512D02*
X416Y512D01*
X731Y512D02*
X732Y512D01*
X881Y512D02*
X882Y512D01*
X1162Y512D02*
X1169Y512D01*
X0Y511D02*
X7Y511D01*
X265Y511D02*
X266Y511D01*
X415Y511D02*
X416Y511D01*
X731Y511D02*
X732Y511D01*
X881Y511D02*
X882Y511D01*
X1162Y511D02*
X1169Y511D01*
X0Y510D02*
X7Y510D01*
X265Y510D02*
X266Y510D01*
X415Y510D02*
X416Y510D01*
X731Y510D02*
X732Y510D01*
X881Y510D02*
X882Y510D01*
X1162Y510D02*
X1169Y510D01*
X0Y509D02*
X7Y509D01*
X265Y509D02*
X266Y509D01*
X415Y509D02*
X416Y509D01*
X731Y509D02*
X732Y509D01*
X881Y509D02*
X882Y509D01*
X1162Y509D02*
X1169Y509D01*
X0Y508D02*
X7Y508D01*
X265Y508D02*
X266Y508D01*
X415Y508D02*
X416Y508D01*
X731Y508D02*
X732Y508D01*
X881Y508D02*
X882Y508D01*
X1162Y508D02*
X1169Y508D01*
X0Y507D02*
X7Y507D01*
X265Y507D02*
X266Y507D01*
X415Y507D02*
X416Y507D01*
X731Y507D02*
X732Y507D01*
X881Y507D02*
X882Y507D01*
X1162Y507D02*
X1169Y507D01*
X0Y506D02*
X7Y506D01*
X265Y506D02*
X266Y506D01*
X415Y506D02*
X416Y506D01*
X731Y506D02*
X732Y506D01*
X881Y506D02*
X882Y506D01*
X1162Y506D02*
X1169Y506D01*
X0Y505D02*
X7Y505D01*
X265Y505D02*
X266Y505D01*
X415Y505D02*
X416Y505D01*
X731Y505D02*
X732Y505D01*
X881Y505D02*
X882Y505D01*
X1162Y505D02*
X1169Y505D01*
X0Y504D02*
X7Y504D01*
X265Y504D02*
X266Y504D01*
X415Y504D02*
X416Y504D01*
X731Y504D02*
X732Y504D01*
X881Y504D02*
X882Y504D01*
X1162Y504D02*
X1169Y504D01*
X0Y503D02*
X7Y503D01*
X265Y503D02*
X266Y503D01*
X415Y503D02*
X416Y503D01*
X731Y503D02*
X732Y503D01*
X881Y503D02*
X882Y503D01*
X1162Y503D02*
X1169Y503D01*
X0Y502D02*
X7Y502D01*
X265Y502D02*
X266Y502D01*
X415Y502D02*
X416Y502D01*
X731Y502D02*
X732Y502D01*
X881Y502D02*
X882Y502D01*
X1162Y502D02*
X1169Y502D01*
X0Y501D02*
X7Y501D01*
X265Y501D02*
X266Y501D01*
X415Y501D02*
X416Y501D01*
X731Y501D02*
X732Y501D01*
X881Y501D02*
X882Y501D01*
X1162Y501D02*
X1169Y501D01*
X0Y500D02*
X7Y500D01*
X265Y500D02*
X266Y500D01*
X415Y500D02*
X416Y500D01*
X731Y500D02*
X732Y500D01*
X881Y500D02*
X882Y500D01*
X1162Y500D02*
X1169Y500D01*
X0Y499D02*
X7Y499D01*
X265Y499D02*
X266Y499D01*
X415Y499D02*
X416Y499D01*
X731Y499D02*
X732Y499D01*
X881Y499D02*
X882Y499D01*
X1162Y499D02*
X1169Y499D01*
X0Y498D02*
X7Y498D01*
X265Y498D02*
X266Y498D01*
X415Y498D02*
X416Y498D01*
X731Y498D02*
X732Y498D01*
X881Y498D02*
X882Y498D01*
X1162Y498D02*
X1169Y498D01*
X0Y497D02*
X7Y497D01*
X265Y497D02*
X266Y497D01*
X415Y497D02*
X416Y497D01*
X731Y497D02*
X732Y497D01*
X881Y497D02*
X882Y497D01*
X1162Y497D02*
X1169Y497D01*
X0Y496D02*
X7Y496D01*
X265Y496D02*
X266Y496D01*
X415Y496D02*
X416Y496D01*
X727Y496D02*
X732Y496D01*
X881Y496D02*
X886Y496D01*
X1162Y496D02*
X1169Y496D01*
X0Y495D02*
X7Y495D01*
X265Y495D02*
X266Y495D01*
X415Y495D02*
X416Y495D01*
X727Y495D02*
X732Y495D01*
X881Y495D02*
X886Y495D01*
X1162Y495D02*
X1169Y495D01*
X0Y494D02*
X7Y494D01*
X265Y494D02*
X266Y494D01*
X415Y494D02*
X416Y494D01*
X727Y494D02*
X732Y494D01*
X881Y494D02*
X886Y494D01*
X1162Y494D02*
X1169Y494D01*
X0Y493D02*
X7Y493D01*
X265Y493D02*
X266Y493D01*
X415Y493D02*
X416Y493D01*
X727Y493D02*
X732Y493D01*
X881Y493D02*
X886Y493D01*
X1162Y493D02*
X1169Y493D01*
X0Y492D02*
X7Y492D01*
X265Y492D02*
X266Y492D01*
X415Y492D02*
X416Y492D01*
X727Y492D02*
X732Y492D01*
X881Y492D02*
X886Y492D01*
X1162Y492D02*
X1169Y492D01*
X0Y491D02*
X7Y491D01*
X265Y491D02*
X266Y491D01*
X415Y491D02*
X416Y491D01*
X727Y491D02*
X732Y491D01*
X881Y491D02*
X886Y491D01*
X1162Y491D02*
X1169Y491D01*
X0Y490D02*
X7Y490D01*
X265Y490D02*
X266Y490D01*
X415Y490D02*
X416Y490D01*
X727Y490D02*
X732Y490D01*
X881Y490D02*
X886Y490D01*
X1162Y490D02*
X1169Y490D01*
X0Y489D02*
X7Y489D01*
X265Y489D02*
X266Y489D01*
X415Y489D02*
X416Y489D01*
X727Y489D02*
X732Y489D01*
X881Y489D02*
X886Y489D01*
X1162Y489D02*
X1169Y489D01*
X0Y488D02*
X7Y488D01*
X265Y488D02*
X266Y488D01*
X415Y488D02*
X416Y488D01*
X727Y488D02*
X732Y488D01*
X881Y488D02*
X886Y488D01*
X1162Y488D02*
X1169Y488D01*
X0Y487D02*
X7Y487D01*
X265Y487D02*
X266Y487D01*
X415Y487D02*
X416Y487D01*
X727Y487D02*
X732Y487D01*
X881Y487D02*
X886Y487D01*
X1162Y487D02*
X1169Y487D01*
X0Y486D02*
X7Y486D01*
X265Y486D02*
X266Y486D01*
X415Y486D02*
X416Y486D01*
X727Y486D02*
X732Y486D01*
X881Y486D02*
X886Y486D01*
X1162Y486D02*
X1169Y486D01*
X0Y485D02*
X7Y485D01*
X265Y485D02*
X266Y485D01*
X415Y485D02*
X416Y485D01*
X727Y485D02*
X732Y485D01*
X881Y485D02*
X886Y485D01*
X1162Y485D02*
X1169Y485D01*
X0Y484D02*
X7Y484D01*
X265Y484D02*
X266Y484D01*
X415Y484D02*
X416Y484D01*
X727Y484D02*
X732Y484D01*
X881Y484D02*
X886Y484D01*
X1162Y484D02*
X1169Y484D01*
X0Y483D02*
X7Y483D01*
X265Y483D02*
X266Y483D01*
X415Y483D02*
X416Y483D01*
X727Y483D02*
X732Y483D01*
X881Y483D02*
X886Y483D01*
X1162Y483D02*
X1169Y483D01*
X0Y482D02*
X7Y482D01*
X265Y482D02*
X266Y482D01*
X415Y482D02*
X416Y482D01*
X731Y482D02*
X732Y482D01*
X881Y482D02*
X882Y482D01*
X1162Y482D02*
X1169Y482D01*
X0Y481D02*
X7Y481D01*
X265Y481D02*
X266Y481D01*
X415Y481D02*
X416Y481D01*
X731Y481D02*
X732Y481D01*
X881Y481D02*
X882Y481D01*
X1162Y481D02*
X1169Y481D01*
X0Y480D02*
X7Y480D01*
X265Y480D02*
X266Y480D01*
X415Y480D02*
X416Y480D01*
X731Y480D02*
X732Y480D01*
X881Y480D02*
X882Y480D01*
X1162Y480D02*
X1169Y480D01*
X0Y479D02*
X7Y479D01*
X265Y479D02*
X266Y479D01*
X415Y479D02*
X416Y479D01*
X731Y479D02*
X732Y479D01*
X881Y479D02*
X882Y479D01*
X1162Y479D02*
X1169Y479D01*
X0Y478D02*
X7Y478D01*
X265Y478D02*
X266Y478D01*
X415Y478D02*
X416Y478D01*
X731Y478D02*
X732Y478D01*
X881Y478D02*
X882Y478D01*
X1162Y478D02*
X1169Y478D01*
X0Y477D02*
X7Y477D01*
X261Y477D02*
X266Y477D01*
X415Y477D02*
X420Y477D01*
X731Y477D02*
X732Y477D01*
X881Y477D02*
X882Y477D01*
X1162Y477D02*
X1169Y477D01*
X0Y476D02*
X7Y476D01*
X261Y476D02*
X266Y476D01*
X415Y476D02*
X420Y476D01*
X731Y476D02*
X732Y476D01*
X881Y476D02*
X882Y476D01*
X1162Y476D02*
X1169Y476D01*
X0Y475D02*
X7Y475D01*
X261Y475D02*
X266Y475D01*
X415Y475D02*
X420Y475D01*
X731Y475D02*
X732Y475D01*
X881Y475D02*
X882Y475D01*
X1162Y475D02*
X1169Y475D01*
X0Y474D02*
X7Y474D01*
X261Y474D02*
X266Y474D01*
X415Y474D02*
X420Y474D01*
X731Y474D02*
X732Y474D01*
X881Y474D02*
X882Y474D01*
X1162Y474D02*
X1169Y474D01*
X0Y473D02*
X7Y473D01*
X261Y473D02*
X266Y473D01*
X415Y473D02*
X420Y473D01*
X731Y473D02*
X732Y473D01*
X881Y473D02*
X882Y473D01*
X1162Y473D02*
X1169Y473D01*
X0Y472D02*
X7Y472D01*
X261Y472D02*
X266Y472D01*
X415Y472D02*
X420Y472D01*
X731Y472D02*
X732Y472D01*
X881Y472D02*
X882Y472D01*
X1162Y472D02*
X1169Y472D01*
X0Y471D02*
X7Y471D01*
X261Y471D02*
X266Y471D01*
X415Y471D02*
X420Y471D01*
X731Y471D02*
X732Y471D01*
X881Y471D02*
X882Y471D01*
X1162Y471D02*
X1169Y471D01*
X0Y470D02*
X7Y470D01*
X261Y470D02*
X266Y470D01*
X415Y470D02*
X420Y470D01*
X731Y470D02*
X732Y470D01*
X881Y470D02*
X882Y470D01*
X1162Y470D02*
X1169Y470D01*
X0Y469D02*
X7Y469D01*
X261Y469D02*
X266Y469D01*
X415Y469D02*
X420Y469D01*
X731Y469D02*
X732Y469D01*
X881Y469D02*
X882Y469D01*
X1162Y469D02*
X1169Y469D01*
X0Y468D02*
X7Y468D01*
X261Y468D02*
X266Y468D01*
X415Y468D02*
X420Y468D01*
X731Y468D02*
X732Y468D01*
X881Y468D02*
X882Y468D01*
X1162Y468D02*
X1169Y468D01*
X0Y467D02*
X7Y467D01*
X261Y467D02*
X266Y467D01*
X415Y467D02*
X420Y467D01*
X731Y467D02*
X732Y467D01*
X881Y467D02*
X882Y467D01*
X1162Y467D02*
X1169Y467D01*
X0Y466D02*
X7Y466D01*
X261Y466D02*
X266Y466D01*
X415Y466D02*
X420Y466D01*
X731Y466D02*
X732Y466D01*
X881Y466D02*
X882Y466D01*
X1162Y466D02*
X1169Y466D01*
X0Y465D02*
X7Y465D01*
X261Y465D02*
X266Y465D01*
X415Y465D02*
X420Y465D01*
X731Y465D02*
X732Y465D01*
X881Y465D02*
X882Y465D01*
X1162Y465D02*
X1169Y465D01*
X0Y464D02*
X7Y464D01*
X261Y464D02*
X266Y464D01*
X415Y464D02*
X420Y464D01*
X731Y464D02*
X732Y464D01*
X881Y464D02*
X882Y464D01*
X1162Y464D02*
X1169Y464D01*
X0Y463D02*
X7Y463D01*
X265Y463D02*
X266Y463D01*
X415Y463D02*
X416Y463D01*
X731Y463D02*
X732Y463D01*
X881Y463D02*
X882Y463D01*
X1162Y463D02*
X1169Y463D01*
X0Y462D02*
X7Y462D01*
X265Y462D02*
X266Y462D01*
X415Y462D02*
X416Y462D01*
X731Y462D02*
X732Y462D01*
X881Y462D02*
X882Y462D01*
X1162Y462D02*
X1169Y462D01*
X0Y461D02*
X7Y461D01*
X265Y461D02*
X266Y461D01*
X415Y461D02*
X416Y461D01*
X731Y461D02*
X732Y461D01*
X881Y461D02*
X882Y461D01*
X1162Y461D02*
X1169Y461D01*
X0Y460D02*
X7Y460D01*
X265Y460D02*
X266Y460D01*
X415Y460D02*
X416Y460D01*
X731Y460D02*
X732Y460D01*
X881Y460D02*
X882Y460D01*
X1162Y460D02*
X1169Y460D01*
X0Y459D02*
X7Y459D01*
X265Y459D02*
X266Y459D01*
X415Y459D02*
X416Y459D01*
X731Y459D02*
X732Y459D01*
X881Y459D02*
X882Y459D01*
X1162Y459D02*
X1169Y459D01*
X0Y458D02*
X7Y458D01*
X265Y458D02*
X266Y458D01*
X415Y458D02*
X416Y458D01*
X731Y458D02*
X732Y458D01*
X881Y458D02*
X882Y458D01*
X1162Y458D02*
X1169Y458D01*
X0Y457D02*
X7Y457D01*
X265Y457D02*
X266Y457D01*
X415Y457D02*
X416Y457D01*
X731Y457D02*
X732Y457D01*
X881Y457D02*
X882Y457D01*
X1162Y457D02*
X1169Y457D01*
X0Y456D02*
X7Y456D01*
X265Y456D02*
X266Y456D01*
X415Y456D02*
X416Y456D01*
X731Y456D02*
X732Y456D01*
X881Y456D02*
X882Y456D01*
X1162Y456D02*
X1169Y456D01*
X0Y455D02*
X7Y455D01*
X265Y455D02*
X266Y455D01*
X415Y455D02*
X416Y455D01*
X731Y455D02*
X732Y455D01*
X881Y455D02*
X882Y455D01*
X1162Y455D02*
X1169Y455D01*
X0Y454D02*
X7Y454D01*
X265Y454D02*
X266Y454D01*
X415Y454D02*
X416Y454D01*
X731Y454D02*
X732Y454D01*
X881Y454D02*
X882Y454D01*
X1162Y454D02*
X1169Y454D01*
X0Y453D02*
X7Y453D01*
X265Y453D02*
X266Y453D01*
X415Y453D02*
X416Y453D01*
X731Y453D02*
X732Y453D01*
X881Y453D02*
X882Y453D01*
X1162Y453D02*
X1169Y453D01*
X0Y452D02*
X7Y452D01*
X265Y452D02*
X266Y452D01*
X415Y452D02*
X416Y452D01*
X731Y452D02*
X732Y452D01*
X881Y452D02*
X882Y452D01*
X1162Y452D02*
X1169Y452D01*
X0Y451D02*
X7Y451D01*
X265Y451D02*
X266Y451D01*
X415Y451D02*
X416Y451D01*
X731Y451D02*
X732Y451D01*
X881Y451D02*
X882Y451D01*
X1162Y451D02*
X1169Y451D01*
X0Y450D02*
X7Y450D01*
X265Y450D02*
X266Y450D01*
X415Y450D02*
X416Y450D01*
X731Y450D02*
X732Y450D01*
X881Y450D02*
X882Y450D01*
X1162Y450D02*
X1169Y450D01*
X0Y449D02*
X7Y449D01*
X265Y449D02*
X266Y449D01*
X415Y449D02*
X416Y449D01*
X731Y449D02*
X732Y449D01*
X881Y449D02*
X882Y449D01*
X1162Y449D02*
X1169Y449D01*
X0Y448D02*
X7Y448D01*
X265Y448D02*
X266Y448D01*
X415Y448D02*
X416Y448D01*
X731Y448D02*
X732Y448D01*
X881Y448D02*
X882Y448D01*
X1162Y448D02*
X1169Y448D01*
X0Y447D02*
X7Y447D01*
X265Y447D02*
X266Y447D01*
X415Y447D02*
X416Y447D01*
X731Y447D02*
X732Y447D01*
X881Y447D02*
X882Y447D01*
X1162Y447D02*
X1169Y447D01*
X0Y446D02*
X7Y446D01*
X265Y446D02*
X266Y446D01*
X415Y446D02*
X416Y446D01*
X727Y446D02*
X732Y446D01*
X881Y446D02*
X886Y446D01*
X1162Y446D02*
X1169Y446D01*
X0Y445D02*
X7Y445D01*
X265Y445D02*
X266Y445D01*
X415Y445D02*
X416Y445D01*
X727Y445D02*
X732Y445D01*
X881Y445D02*
X886Y445D01*
X1162Y445D02*
X1169Y445D01*
X0Y444D02*
X7Y444D01*
X265Y444D02*
X266Y444D01*
X415Y444D02*
X416Y444D01*
X727Y444D02*
X732Y444D01*
X881Y444D02*
X886Y444D01*
X1162Y444D02*
X1169Y444D01*
X0Y443D02*
X7Y443D01*
X265Y443D02*
X266Y443D01*
X415Y443D02*
X416Y443D01*
X727Y443D02*
X732Y443D01*
X881Y443D02*
X886Y443D01*
X1162Y443D02*
X1169Y443D01*
X0Y442D02*
X7Y442D01*
X265Y442D02*
X266Y442D01*
X415Y442D02*
X416Y442D01*
X727Y442D02*
X732Y442D01*
X881Y442D02*
X886Y442D01*
X1162Y442D02*
X1169Y442D01*
X0Y441D02*
X7Y441D01*
X265Y441D02*
X266Y441D01*
X415Y441D02*
X416Y441D01*
X727Y441D02*
X732Y441D01*
X881Y441D02*
X886Y441D01*
X1162Y441D02*
X1169Y441D01*
X0Y440D02*
X7Y440D01*
X265Y440D02*
X266Y440D01*
X415Y440D02*
X416Y440D01*
X727Y440D02*
X732Y440D01*
X881Y440D02*
X886Y440D01*
X1162Y440D02*
X1169Y440D01*
X0Y439D02*
X7Y439D01*
X265Y439D02*
X266Y439D01*
X415Y439D02*
X416Y439D01*
X727Y439D02*
X732Y439D01*
X881Y439D02*
X886Y439D01*
X1162Y439D02*
X1169Y439D01*
X0Y438D02*
X7Y438D01*
X265Y438D02*
X266Y438D01*
X415Y438D02*
X416Y438D01*
X727Y438D02*
X732Y438D01*
X881Y438D02*
X886Y438D01*
X1162Y438D02*
X1169Y438D01*
X0Y437D02*
X7Y437D01*
X265Y437D02*
X266Y437D01*
X415Y437D02*
X416Y437D01*
X727Y437D02*
X732Y437D01*
X881Y437D02*
X886Y437D01*
X1162Y437D02*
X1169Y437D01*
X0Y436D02*
X7Y436D01*
X265Y436D02*
X266Y436D01*
X415Y436D02*
X416Y436D01*
X727Y436D02*
X732Y436D01*
X881Y436D02*
X886Y436D01*
X1162Y436D02*
X1169Y436D01*
X0Y435D02*
X7Y435D01*
X265Y435D02*
X266Y435D01*
X415Y435D02*
X416Y435D01*
X727Y435D02*
X732Y435D01*
X881Y435D02*
X886Y435D01*
X1162Y435D02*
X1169Y435D01*
X0Y434D02*
X7Y434D01*
X265Y434D02*
X266Y434D01*
X415Y434D02*
X416Y434D01*
X727Y434D02*
X732Y434D01*
X881Y434D02*
X886Y434D01*
X1162Y434D02*
X1169Y434D01*
X0Y433D02*
X7Y433D01*
X265Y433D02*
X266Y433D01*
X415Y433D02*
X416Y433D01*
X727Y433D02*
X732Y433D01*
X881Y433D02*
X886Y433D01*
X1162Y433D02*
X1169Y433D01*
X0Y432D02*
X7Y432D01*
X265Y432D02*
X266Y432D01*
X415Y432D02*
X416Y432D01*
X731Y432D02*
X732Y432D01*
X881Y432D02*
X882Y432D01*
X1162Y432D02*
X1169Y432D01*
X0Y431D02*
X7Y431D01*
X265Y431D02*
X266Y431D01*
X415Y431D02*
X416Y431D01*
X731Y431D02*
X732Y431D01*
X881Y431D02*
X882Y431D01*
X1162Y431D02*
X1169Y431D01*
X0Y430D02*
X7Y430D01*
X265Y430D02*
X266Y430D01*
X415Y430D02*
X416Y430D01*
X731Y430D02*
X732Y430D01*
X881Y430D02*
X882Y430D01*
X1162Y430D02*
X1169Y430D01*
X0Y429D02*
X7Y429D01*
X265Y429D02*
X266Y429D01*
X415Y429D02*
X416Y429D01*
X731Y429D02*
X732Y429D01*
X881Y429D02*
X882Y429D01*
X1162Y429D02*
X1169Y429D01*
X0Y428D02*
X7Y428D01*
X265Y428D02*
X266Y428D01*
X415Y428D02*
X416Y428D01*
X731Y428D02*
X732Y428D01*
X881Y428D02*
X882Y428D01*
X1162Y428D02*
X1169Y428D01*
X0Y427D02*
X7Y427D01*
X261Y427D02*
X266Y427D01*
X415Y427D02*
X420Y427D01*
X731Y427D02*
X732Y427D01*
X881Y427D02*
X882Y427D01*
X1162Y427D02*
X1169Y427D01*
X0Y426D02*
X7Y426D01*
X261Y426D02*
X266Y426D01*
X415Y426D02*
X420Y426D01*
X731Y426D02*
X732Y426D01*
X881Y426D02*
X882Y426D01*
X1162Y426D02*
X1169Y426D01*
X0Y425D02*
X7Y425D01*
X261Y425D02*
X266Y425D01*
X415Y425D02*
X420Y425D01*
X731Y425D02*
X732Y425D01*
X881Y425D02*
X882Y425D01*
X1162Y425D02*
X1169Y425D01*
X0Y424D02*
X7Y424D01*
X261Y424D02*
X266Y424D01*
X415Y424D02*
X420Y424D01*
X731Y424D02*
X732Y424D01*
X881Y424D02*
X882Y424D01*
X1162Y424D02*
X1169Y424D01*
X0Y423D02*
X7Y423D01*
X261Y423D02*
X266Y423D01*
X415Y423D02*
X420Y423D01*
X731Y423D02*
X732Y423D01*
X881Y423D02*
X882Y423D01*
X1162Y423D02*
X1169Y423D01*
X0Y422D02*
X7Y422D01*
X261Y422D02*
X266Y422D01*
X415Y422D02*
X420Y422D01*
X731Y422D02*
X732Y422D01*
X881Y422D02*
X882Y422D01*
X1162Y422D02*
X1169Y422D01*
X0Y421D02*
X7Y421D01*
X261Y421D02*
X266Y421D01*
X415Y421D02*
X420Y421D01*
X731Y421D02*
X732Y421D01*
X881Y421D02*
X882Y421D01*
X1162Y421D02*
X1169Y421D01*
X0Y420D02*
X7Y420D01*
X261Y420D02*
X266Y420D01*
X415Y420D02*
X420Y420D01*
X731Y420D02*
X732Y420D01*
X881Y420D02*
X882Y420D01*
X1162Y420D02*
X1169Y420D01*
X0Y419D02*
X7Y419D01*
X261Y419D02*
X266Y419D01*
X415Y419D02*
X420Y419D01*
X731Y419D02*
X732Y419D01*
X881Y419D02*
X882Y419D01*
X1162Y419D02*
X1169Y419D01*
X0Y418D02*
X7Y418D01*
X261Y418D02*
X266Y418D01*
X415Y418D02*
X420Y418D01*
X731Y418D02*
X732Y418D01*
X881Y418D02*
X882Y418D01*
X1162Y418D02*
X1169Y418D01*
X0Y417D02*
X7Y417D01*
X261Y417D02*
X266Y417D01*
X415Y417D02*
X420Y417D01*
X731Y417D02*
X732Y417D01*
X881Y417D02*
X882Y417D01*
X1162Y417D02*
X1169Y417D01*
X0Y416D02*
X7Y416D01*
X261Y416D02*
X266Y416D01*
X415Y416D02*
X420Y416D01*
X731Y416D02*
X732Y416D01*
X881Y416D02*
X882Y416D01*
X1162Y416D02*
X1169Y416D01*
X0Y415D02*
X7Y415D01*
X261Y415D02*
X266Y415D01*
X415Y415D02*
X420Y415D01*
X731Y415D02*
X732Y415D01*
X881Y415D02*
X882Y415D01*
X1162Y415D02*
X1169Y415D01*
X0Y414D02*
X7Y414D01*
X261Y414D02*
X266Y414D01*
X415Y414D02*
X420Y414D01*
X731Y414D02*
X732Y414D01*
X881Y414D02*
X882Y414D01*
X1162Y414D02*
X1169Y414D01*
X0Y413D02*
X7Y413D01*
X265Y413D02*
X266Y413D01*
X415Y413D02*
X416Y413D01*
X731Y413D02*
X732Y413D01*
X881Y413D02*
X882Y413D01*
X1162Y413D02*
X1169Y413D01*
X0Y412D02*
X7Y412D01*
X265Y412D02*
X266Y412D01*
X415Y412D02*
X416Y412D01*
X731Y412D02*
X732Y412D01*
X881Y412D02*
X882Y412D01*
X1162Y412D02*
X1169Y412D01*
X0Y411D02*
X7Y411D01*
X265Y411D02*
X266Y411D01*
X415Y411D02*
X416Y411D01*
X731Y411D02*
X732Y411D01*
X881Y411D02*
X882Y411D01*
X1162Y411D02*
X1169Y411D01*
X0Y410D02*
X7Y410D01*
X265Y410D02*
X266Y410D01*
X415Y410D02*
X416Y410D01*
X731Y410D02*
X732Y410D01*
X881Y410D02*
X882Y410D01*
X1162Y410D02*
X1169Y410D01*
X0Y409D02*
X7Y409D01*
X265Y409D02*
X266Y409D01*
X415Y409D02*
X416Y409D01*
X731Y409D02*
X732Y409D01*
X881Y409D02*
X882Y409D01*
X1162Y409D02*
X1169Y409D01*
X0Y408D02*
X7Y408D01*
X265Y408D02*
X266Y408D01*
X415Y408D02*
X416Y408D01*
X731Y408D02*
X732Y408D01*
X881Y408D02*
X882Y408D01*
X1162Y408D02*
X1169Y408D01*
X0Y407D02*
X7Y407D01*
X265Y407D02*
X266Y407D01*
X415Y407D02*
X416Y407D01*
X731Y407D02*
X732Y407D01*
X881Y407D02*
X882Y407D01*
X1162Y407D02*
X1169Y407D01*
X0Y406D02*
X7Y406D01*
X265Y406D02*
X266Y406D01*
X415Y406D02*
X416Y406D01*
X731Y406D02*
X732Y406D01*
X881Y406D02*
X882Y406D01*
X1162Y406D02*
X1169Y406D01*
X0Y405D02*
X7Y405D01*
X265Y405D02*
X266Y405D01*
X415Y405D02*
X416Y405D01*
X731Y405D02*
X732Y405D01*
X881Y405D02*
X882Y405D01*
X1162Y405D02*
X1169Y405D01*
X0Y404D02*
X7Y404D01*
X265Y404D02*
X266Y404D01*
X415Y404D02*
X416Y404D01*
X731Y404D02*
X732Y404D01*
X881Y404D02*
X882Y404D01*
X1162Y404D02*
X1169Y404D01*
X0Y403D02*
X7Y403D01*
X265Y403D02*
X266Y403D01*
X415Y403D02*
X416Y403D01*
X731Y403D02*
X732Y403D01*
X881Y403D02*
X882Y403D01*
X1162Y403D02*
X1169Y403D01*
X0Y402D02*
X7Y402D01*
X265Y402D02*
X266Y402D01*
X415Y402D02*
X416Y402D01*
X731Y402D02*
X732Y402D01*
X881Y402D02*
X882Y402D01*
X1162Y402D02*
X1169Y402D01*
X0Y401D02*
X7Y401D01*
X265Y401D02*
X266Y401D01*
X415Y401D02*
X416Y401D01*
X731Y401D02*
X732Y401D01*
X881Y401D02*
X882Y401D01*
X1162Y401D02*
X1169Y401D01*
X0Y400D02*
X7Y400D01*
X265Y400D02*
X266Y400D01*
X415Y400D02*
X416Y400D01*
X731Y400D02*
X732Y400D01*
X881Y400D02*
X882Y400D01*
X1162Y400D02*
X1169Y400D01*
X0Y399D02*
X7Y399D01*
X265Y399D02*
X266Y399D01*
X415Y399D02*
X416Y399D01*
X731Y399D02*
X732Y399D01*
X881Y399D02*
X882Y399D01*
X1162Y399D02*
X1169Y399D01*
X0Y398D02*
X7Y398D01*
X265Y398D02*
X266Y398D01*
X415Y398D02*
X416Y398D01*
X731Y398D02*
X732Y398D01*
X881Y398D02*
X882Y398D01*
X1162Y398D02*
X1169Y398D01*
X0Y397D02*
X7Y397D01*
X265Y397D02*
X266Y397D01*
X415Y397D02*
X416Y397D01*
X731Y397D02*
X732Y397D01*
X881Y397D02*
X882Y397D01*
X1162Y397D02*
X1169Y397D01*
X0Y396D02*
X7Y396D01*
X265Y396D02*
X266Y396D01*
X415Y396D02*
X416Y396D01*
X727Y396D02*
X732Y396D01*
X881Y396D02*
X886Y396D01*
X1162Y396D02*
X1169Y396D01*
X0Y395D02*
X7Y395D01*
X265Y395D02*
X266Y395D01*
X415Y395D02*
X416Y395D01*
X727Y395D02*
X732Y395D01*
X881Y395D02*
X886Y395D01*
X1162Y395D02*
X1169Y395D01*
X0Y394D02*
X7Y394D01*
X265Y394D02*
X266Y394D01*
X415Y394D02*
X416Y394D01*
X727Y394D02*
X732Y394D01*
X881Y394D02*
X886Y394D01*
X1162Y394D02*
X1169Y394D01*
X0Y393D02*
X7Y393D01*
X265Y393D02*
X266Y393D01*
X415Y393D02*
X416Y393D01*
X727Y393D02*
X732Y393D01*
X881Y393D02*
X886Y393D01*
X1162Y393D02*
X1169Y393D01*
X0Y392D02*
X7Y392D01*
X265Y392D02*
X266Y392D01*
X415Y392D02*
X416Y392D01*
X727Y392D02*
X732Y392D01*
X881Y392D02*
X886Y392D01*
X1162Y392D02*
X1169Y392D01*
X0Y391D02*
X7Y391D01*
X265Y391D02*
X266Y391D01*
X415Y391D02*
X416Y391D01*
X727Y391D02*
X732Y391D01*
X881Y391D02*
X886Y391D01*
X1162Y391D02*
X1169Y391D01*
X0Y390D02*
X7Y390D01*
X265Y390D02*
X266Y390D01*
X415Y390D02*
X416Y390D01*
X727Y390D02*
X732Y390D01*
X881Y390D02*
X886Y390D01*
X1162Y390D02*
X1169Y390D01*
X0Y389D02*
X7Y389D01*
X265Y389D02*
X266Y389D01*
X415Y389D02*
X416Y389D01*
X727Y389D02*
X732Y389D01*
X881Y389D02*
X886Y389D01*
X1162Y389D02*
X1169Y389D01*
X0Y388D02*
X7Y388D01*
X265Y388D02*
X266Y388D01*
X415Y388D02*
X416Y388D01*
X727Y388D02*
X732Y388D01*
X881Y388D02*
X886Y388D01*
X1162Y388D02*
X1169Y388D01*
X0Y387D02*
X7Y387D01*
X265Y387D02*
X266Y387D01*
X415Y387D02*
X416Y387D01*
X727Y387D02*
X732Y387D01*
X881Y387D02*
X886Y387D01*
X1162Y387D02*
X1169Y387D01*
X0Y386D02*
X7Y386D01*
X265Y386D02*
X266Y386D01*
X415Y386D02*
X416Y386D01*
X727Y386D02*
X732Y386D01*
X881Y386D02*
X886Y386D01*
X1162Y386D02*
X1169Y386D01*
X0Y385D02*
X7Y385D01*
X265Y385D02*
X266Y385D01*
X415Y385D02*
X416Y385D01*
X727Y385D02*
X732Y385D01*
X881Y385D02*
X886Y385D01*
X1162Y385D02*
X1169Y385D01*
X0Y384D02*
X7Y384D01*
X265Y384D02*
X266Y384D01*
X415Y384D02*
X416Y384D01*
X727Y384D02*
X732Y384D01*
X881Y384D02*
X886Y384D01*
X1162Y384D02*
X1169Y384D01*
X0Y383D02*
X7Y383D01*
X265Y383D02*
X266Y383D01*
X415Y383D02*
X416Y383D01*
X727Y383D02*
X732Y383D01*
X881Y383D02*
X886Y383D01*
X1162Y383D02*
X1169Y383D01*
X0Y382D02*
X7Y382D01*
X265Y382D02*
X266Y382D01*
X415Y382D02*
X416Y382D01*
X731Y382D02*
X732Y382D01*
X881Y382D02*
X882Y382D01*
X1162Y382D02*
X1169Y382D01*
X0Y381D02*
X7Y381D01*
X265Y381D02*
X266Y381D01*
X415Y381D02*
X416Y381D01*
X731Y381D02*
X732Y381D01*
X881Y381D02*
X882Y381D01*
X1162Y381D02*
X1169Y381D01*
X0Y380D02*
X7Y380D01*
X265Y380D02*
X266Y380D01*
X415Y380D02*
X416Y380D01*
X731Y380D02*
X732Y380D01*
X881Y380D02*
X882Y380D01*
X1162Y380D02*
X1169Y380D01*
X0Y379D02*
X7Y379D01*
X265Y379D02*
X266Y379D01*
X415Y379D02*
X416Y379D01*
X731Y379D02*
X732Y379D01*
X881Y379D02*
X882Y379D01*
X1162Y379D02*
X1169Y379D01*
X0Y378D02*
X7Y378D01*
X265Y378D02*
X266Y378D01*
X415Y378D02*
X416Y378D01*
X731Y378D02*
X732Y378D01*
X881Y378D02*
X882Y378D01*
X1162Y378D02*
X1169Y378D01*
X0Y377D02*
X7Y377D01*
X261Y377D02*
X266Y377D01*
X415Y377D02*
X420Y377D01*
X731Y377D02*
X732Y377D01*
X881Y377D02*
X882Y377D01*
X1162Y377D02*
X1169Y377D01*
X0Y376D02*
X7Y376D01*
X261Y376D02*
X266Y376D01*
X415Y376D02*
X420Y376D01*
X731Y376D02*
X732Y376D01*
X881Y376D02*
X882Y376D01*
X1162Y376D02*
X1169Y376D01*
X0Y375D02*
X7Y375D01*
X261Y375D02*
X266Y375D01*
X415Y375D02*
X420Y375D01*
X731Y375D02*
X732Y375D01*
X881Y375D02*
X882Y375D01*
X1162Y375D02*
X1169Y375D01*
X0Y374D02*
X7Y374D01*
X261Y374D02*
X266Y374D01*
X415Y374D02*
X420Y374D01*
X731Y374D02*
X732Y374D01*
X881Y374D02*
X882Y374D01*
X1162Y374D02*
X1169Y374D01*
X0Y373D02*
X7Y373D01*
X261Y373D02*
X266Y373D01*
X415Y373D02*
X420Y373D01*
X731Y373D02*
X732Y373D01*
X881Y373D02*
X882Y373D01*
X1162Y373D02*
X1169Y373D01*
X0Y372D02*
X7Y372D01*
X261Y372D02*
X266Y372D01*
X415Y372D02*
X420Y372D01*
X731Y372D02*
X732Y372D01*
X881Y372D02*
X882Y372D01*
X1162Y372D02*
X1169Y372D01*
X0Y371D02*
X7Y371D01*
X261Y371D02*
X266Y371D01*
X415Y371D02*
X420Y371D01*
X731Y371D02*
X732Y371D01*
X881Y371D02*
X882Y371D01*
X1162Y371D02*
X1169Y371D01*
X0Y370D02*
X7Y370D01*
X261Y370D02*
X266Y370D01*
X415Y370D02*
X420Y370D01*
X731Y370D02*
X732Y370D01*
X881Y370D02*
X882Y370D01*
X1162Y370D02*
X1169Y370D01*
X0Y369D02*
X7Y369D01*
X261Y369D02*
X266Y369D01*
X415Y369D02*
X420Y369D01*
X731Y369D02*
X732Y369D01*
X881Y369D02*
X882Y369D01*
X1162Y369D02*
X1169Y369D01*
X0Y368D02*
X7Y368D01*
X261Y368D02*
X266Y368D01*
X415Y368D02*
X420Y368D01*
X731Y368D02*
X732Y368D01*
X881Y368D02*
X882Y368D01*
X1162Y368D02*
X1169Y368D01*
X0Y367D02*
X7Y367D01*
X261Y367D02*
X266Y367D01*
X415Y367D02*
X420Y367D01*
X731Y367D02*
X732Y367D01*
X881Y367D02*
X882Y367D01*
X1162Y367D02*
X1169Y367D01*
X0Y366D02*
X7Y366D01*
X261Y366D02*
X266Y366D01*
X415Y366D02*
X420Y366D01*
X731Y366D02*
X732Y366D01*
X881Y366D02*
X882Y366D01*
X1162Y366D02*
X1169Y366D01*
X0Y365D02*
X7Y365D01*
X261Y365D02*
X266Y365D01*
X415Y365D02*
X420Y365D01*
X731Y365D02*
X732Y365D01*
X881Y365D02*
X882Y365D01*
X1162Y365D02*
X1169Y365D01*
X0Y364D02*
X7Y364D01*
X261Y364D02*
X266Y364D01*
X415Y364D02*
X420Y364D01*
X731Y364D02*
X732Y364D01*
X881Y364D02*
X882Y364D01*
X1162Y364D02*
X1169Y364D01*
X0Y363D02*
X7Y363D01*
X265Y363D02*
X266Y363D01*
X415Y363D02*
X416Y363D01*
X731Y363D02*
X732Y363D01*
X881Y363D02*
X882Y363D01*
X1162Y363D02*
X1169Y363D01*
X0Y362D02*
X7Y362D01*
X265Y362D02*
X266Y362D01*
X415Y362D02*
X416Y362D01*
X731Y362D02*
X732Y362D01*
X881Y362D02*
X882Y362D01*
X1162Y362D02*
X1169Y362D01*
X0Y361D02*
X7Y361D01*
X265Y361D02*
X266Y361D01*
X415Y361D02*
X416Y361D01*
X731Y361D02*
X732Y361D01*
X881Y361D02*
X882Y361D01*
X1162Y361D02*
X1169Y361D01*
X0Y360D02*
X7Y360D01*
X265Y360D02*
X266Y360D01*
X415Y360D02*
X416Y360D01*
X731Y360D02*
X732Y360D01*
X881Y360D02*
X882Y360D01*
X1162Y360D02*
X1169Y360D01*
X0Y359D02*
X7Y359D01*
X265Y359D02*
X266Y359D01*
X415Y359D02*
X416Y359D01*
X731Y359D02*
X732Y359D01*
X881Y359D02*
X882Y359D01*
X1162Y359D02*
X1169Y359D01*
X0Y358D02*
X7Y358D01*
X265Y358D02*
X266Y358D01*
X415Y358D02*
X416Y358D01*
X731Y358D02*
X732Y358D01*
X881Y358D02*
X882Y358D01*
X1162Y358D02*
X1169Y358D01*
X0Y357D02*
X7Y357D01*
X265Y357D02*
X266Y357D01*
X415Y357D02*
X416Y357D01*
X731Y357D02*
X732Y357D01*
X881Y357D02*
X882Y357D01*
X1162Y357D02*
X1169Y357D01*
X0Y356D02*
X7Y356D01*
X265Y356D02*
X266Y356D01*
X415Y356D02*
X416Y356D01*
X731Y356D02*
X732Y356D01*
X881Y356D02*
X882Y356D01*
X1162Y356D02*
X1169Y356D01*
X0Y355D02*
X7Y355D01*
X265Y355D02*
X266Y355D01*
X415Y355D02*
X416Y355D01*
X731Y355D02*
X732Y355D01*
X881Y355D02*
X882Y355D01*
X1162Y355D02*
X1169Y355D01*
X0Y354D02*
X7Y354D01*
X265Y354D02*
X266Y354D01*
X415Y354D02*
X416Y354D01*
X731Y354D02*
X732Y354D01*
X881Y354D02*
X882Y354D01*
X1162Y354D02*
X1169Y354D01*
X0Y353D02*
X7Y353D01*
X265Y353D02*
X266Y353D01*
X415Y353D02*
X416Y353D01*
X731Y353D02*
X732Y353D01*
X881Y353D02*
X882Y353D01*
X1162Y353D02*
X1169Y353D01*
X0Y352D02*
X7Y352D01*
X265Y352D02*
X266Y352D01*
X415Y352D02*
X416Y352D01*
X731Y352D02*
X732Y352D01*
X881Y352D02*
X882Y352D01*
X1162Y352D02*
X1169Y352D01*
X0Y351D02*
X7Y351D01*
X265Y351D02*
X266Y351D01*
X415Y351D02*
X416Y351D01*
X731Y351D02*
X732Y351D01*
X881Y351D02*
X882Y351D01*
X1162Y351D02*
X1169Y351D01*
X0Y350D02*
X7Y350D01*
X265Y350D02*
X266Y350D01*
X415Y350D02*
X416Y350D01*
X731Y350D02*
X732Y350D01*
X881Y350D02*
X882Y350D01*
X1162Y350D02*
X1169Y350D01*
X0Y349D02*
X7Y349D01*
X265Y349D02*
X266Y349D01*
X415Y349D02*
X416Y349D01*
X731Y349D02*
X732Y349D01*
X881Y349D02*
X882Y349D01*
X1162Y349D02*
X1169Y349D01*
X0Y348D02*
X7Y348D01*
X265Y348D02*
X266Y348D01*
X415Y348D02*
X416Y348D01*
X731Y348D02*
X732Y348D01*
X881Y348D02*
X882Y348D01*
X1162Y348D02*
X1169Y348D01*
X0Y347D02*
X7Y347D01*
X265Y347D02*
X266Y347D01*
X415Y347D02*
X416Y347D01*
X731Y347D02*
X732Y347D01*
X881Y347D02*
X882Y347D01*
X1162Y347D02*
X1169Y347D01*
X0Y346D02*
X7Y346D01*
X265Y346D02*
X266Y346D01*
X415Y346D02*
X416Y346D01*
X727Y346D02*
X732Y346D01*
X881Y346D02*
X886Y346D01*
X1162Y346D02*
X1169Y346D01*
X0Y345D02*
X7Y345D01*
X265Y345D02*
X266Y345D01*
X415Y345D02*
X416Y345D01*
X727Y345D02*
X732Y345D01*
X881Y345D02*
X886Y345D01*
X1162Y345D02*
X1169Y345D01*
X0Y344D02*
X7Y344D01*
X265Y344D02*
X266Y344D01*
X415Y344D02*
X416Y344D01*
X727Y344D02*
X732Y344D01*
X881Y344D02*
X886Y344D01*
X1162Y344D02*
X1169Y344D01*
X0Y343D02*
X7Y343D01*
X265Y343D02*
X266Y343D01*
X415Y343D02*
X416Y343D01*
X727Y343D02*
X732Y343D01*
X881Y343D02*
X886Y343D01*
X1162Y343D02*
X1169Y343D01*
X0Y342D02*
X7Y342D01*
X265Y342D02*
X266Y342D01*
X415Y342D02*
X416Y342D01*
X727Y342D02*
X732Y342D01*
X881Y342D02*
X886Y342D01*
X1162Y342D02*
X1169Y342D01*
X0Y341D02*
X7Y341D01*
X265Y341D02*
X266Y341D01*
X415Y341D02*
X416Y341D01*
X727Y341D02*
X732Y341D01*
X881Y341D02*
X886Y341D01*
X1162Y341D02*
X1169Y341D01*
X0Y340D02*
X7Y340D01*
X265Y340D02*
X266Y340D01*
X415Y340D02*
X416Y340D01*
X727Y340D02*
X732Y340D01*
X881Y340D02*
X886Y340D01*
X1162Y340D02*
X1169Y340D01*
X0Y339D02*
X7Y339D01*
X265Y339D02*
X266Y339D01*
X415Y339D02*
X416Y339D01*
X727Y339D02*
X732Y339D01*
X881Y339D02*
X886Y339D01*
X1162Y339D02*
X1169Y339D01*
X0Y338D02*
X7Y338D01*
X265Y338D02*
X266Y338D01*
X415Y338D02*
X416Y338D01*
X727Y338D02*
X732Y338D01*
X881Y338D02*
X886Y338D01*
X1162Y338D02*
X1169Y338D01*
X0Y337D02*
X7Y337D01*
X265Y337D02*
X266Y337D01*
X415Y337D02*
X416Y337D01*
X727Y337D02*
X732Y337D01*
X881Y337D02*
X886Y337D01*
X1162Y337D02*
X1169Y337D01*
X0Y336D02*
X7Y336D01*
X265Y336D02*
X266Y336D01*
X415Y336D02*
X416Y336D01*
X727Y336D02*
X732Y336D01*
X881Y336D02*
X886Y336D01*
X1162Y336D02*
X1169Y336D01*
X0Y335D02*
X7Y335D01*
X265Y335D02*
X266Y335D01*
X415Y335D02*
X416Y335D01*
X727Y335D02*
X732Y335D01*
X881Y335D02*
X886Y335D01*
X1162Y335D02*
X1169Y335D01*
X0Y334D02*
X7Y334D01*
X265Y334D02*
X266Y334D01*
X415Y334D02*
X416Y334D01*
X727Y334D02*
X732Y334D01*
X881Y334D02*
X886Y334D01*
X1162Y334D02*
X1169Y334D01*
X0Y333D02*
X7Y333D01*
X265Y333D02*
X266Y333D01*
X415Y333D02*
X416Y333D01*
X727Y333D02*
X732Y333D01*
X881Y333D02*
X886Y333D01*
X1162Y333D02*
X1169Y333D01*
X0Y332D02*
X7Y332D01*
X265Y332D02*
X266Y332D01*
X415Y332D02*
X416Y332D01*
X731Y332D02*
X732Y332D01*
X881Y332D02*
X882Y332D01*
X1162Y332D02*
X1169Y332D01*
X0Y331D02*
X7Y331D01*
X265Y331D02*
X266Y331D01*
X415Y331D02*
X416Y331D01*
X731Y331D02*
X732Y331D01*
X881Y331D02*
X882Y331D01*
X1162Y331D02*
X1169Y331D01*
X0Y330D02*
X7Y330D01*
X265Y330D02*
X266Y330D01*
X415Y330D02*
X416Y330D01*
X731Y330D02*
X732Y330D01*
X881Y330D02*
X882Y330D01*
X1162Y330D02*
X1169Y330D01*
X0Y329D02*
X7Y329D01*
X265Y329D02*
X266Y329D01*
X415Y329D02*
X416Y329D01*
X731Y329D02*
X732Y329D01*
X881Y329D02*
X882Y329D01*
X1162Y329D02*
X1169Y329D01*
X0Y328D02*
X7Y328D01*
X265Y328D02*
X266Y328D01*
X415Y328D02*
X416Y328D01*
X731Y328D02*
X732Y328D01*
X881Y328D02*
X882Y328D01*
X1162Y328D02*
X1169Y328D01*
X0Y327D02*
X7Y327D01*
X261Y327D02*
X266Y327D01*
X415Y327D02*
X420Y327D01*
X731Y327D02*
X732Y327D01*
X881Y327D02*
X882Y327D01*
X1162Y327D02*
X1169Y327D01*
X0Y326D02*
X7Y326D01*
X261Y326D02*
X266Y326D01*
X415Y326D02*
X420Y326D01*
X731Y326D02*
X732Y326D01*
X881Y326D02*
X882Y326D01*
X1162Y326D02*
X1169Y326D01*
X0Y325D02*
X7Y325D01*
X261Y325D02*
X266Y325D01*
X415Y325D02*
X420Y325D01*
X731Y325D02*
X732Y325D01*
X881Y325D02*
X882Y325D01*
X1162Y325D02*
X1169Y325D01*
X0Y324D02*
X7Y324D01*
X261Y324D02*
X266Y324D01*
X415Y324D02*
X420Y324D01*
X731Y324D02*
X732Y324D01*
X881Y324D02*
X882Y324D01*
X1162Y324D02*
X1169Y324D01*
X0Y323D02*
X7Y323D01*
X261Y323D02*
X266Y323D01*
X415Y323D02*
X420Y323D01*
X731Y323D02*
X732Y323D01*
X881Y323D02*
X882Y323D01*
X1162Y323D02*
X1169Y323D01*
X0Y322D02*
X7Y322D01*
X261Y322D02*
X266Y322D01*
X415Y322D02*
X420Y322D01*
X731Y322D02*
X732Y322D01*
X881Y322D02*
X882Y322D01*
X1162Y322D02*
X1169Y322D01*
X0Y321D02*
X7Y321D01*
X261Y321D02*
X266Y321D01*
X415Y321D02*
X420Y321D01*
X731Y321D02*
X732Y321D01*
X881Y321D02*
X882Y321D01*
X1162Y321D02*
X1169Y321D01*
X0Y320D02*
X7Y320D01*
X261Y320D02*
X266Y320D01*
X415Y320D02*
X420Y320D01*
X731Y320D02*
X732Y320D01*
X881Y320D02*
X882Y320D01*
X1162Y320D02*
X1169Y320D01*
X0Y319D02*
X7Y319D01*
X261Y319D02*
X266Y319D01*
X415Y319D02*
X420Y319D01*
X731Y319D02*
X732Y319D01*
X881Y319D02*
X882Y319D01*
X1162Y319D02*
X1169Y319D01*
X0Y318D02*
X7Y318D01*
X261Y318D02*
X266Y318D01*
X415Y318D02*
X420Y318D01*
X731Y318D02*
X732Y318D01*
X881Y318D02*
X882Y318D01*
X1162Y318D02*
X1169Y318D01*
X0Y317D02*
X7Y317D01*
X261Y317D02*
X266Y317D01*
X415Y317D02*
X420Y317D01*
X731Y317D02*
X732Y317D01*
X881Y317D02*
X882Y317D01*
X1162Y317D02*
X1169Y317D01*
X0Y316D02*
X7Y316D01*
X261Y316D02*
X266Y316D01*
X415Y316D02*
X420Y316D01*
X731Y316D02*
X732Y316D01*
X881Y316D02*
X882Y316D01*
X1162Y316D02*
X1169Y316D01*
X0Y315D02*
X7Y315D01*
X261Y315D02*
X266Y315D01*
X415Y315D02*
X420Y315D01*
X731Y315D02*
X732Y315D01*
X881Y315D02*
X882Y315D01*
X1162Y315D02*
X1169Y315D01*
X0Y314D02*
X7Y314D01*
X261Y314D02*
X266Y314D01*
X415Y314D02*
X420Y314D01*
X731Y314D02*
X732Y314D01*
X881Y314D02*
X882Y314D01*
X1162Y314D02*
X1169Y314D01*
X0Y313D02*
X7Y313D01*
X265Y313D02*
X266Y313D01*
X415Y313D02*
X416Y313D01*
X731Y313D02*
X732Y313D01*
X881Y313D02*
X882Y313D01*
X1162Y313D02*
X1169Y313D01*
X0Y312D02*
X7Y312D01*
X265Y312D02*
X266Y312D01*
X415Y312D02*
X416Y312D01*
X731Y312D02*
X732Y312D01*
X881Y312D02*
X882Y312D01*
X1162Y312D02*
X1169Y312D01*
X0Y311D02*
X7Y311D01*
X265Y311D02*
X266Y311D01*
X415Y311D02*
X416Y311D01*
X731Y311D02*
X732Y311D01*
X881Y311D02*
X882Y311D01*
X1162Y311D02*
X1169Y311D01*
X0Y310D02*
X7Y310D01*
X265Y310D02*
X266Y310D01*
X415Y310D02*
X416Y310D01*
X731Y310D02*
X732Y310D01*
X881Y310D02*
X882Y310D01*
X1162Y310D02*
X1169Y310D01*
X0Y309D02*
X7Y309D01*
X265Y309D02*
X266Y309D01*
X415Y309D02*
X416Y309D01*
X731Y309D02*
X732Y309D01*
X881Y309D02*
X882Y309D01*
X1162Y309D02*
X1169Y309D01*
X0Y308D02*
X7Y308D01*
X265Y308D02*
X266Y308D01*
X415Y308D02*
X416Y308D01*
X731Y308D02*
X732Y308D01*
X881Y308D02*
X882Y308D01*
X1162Y308D02*
X1169Y308D01*
X0Y307D02*
X7Y307D01*
X265Y307D02*
X266Y307D01*
X415Y307D02*
X416Y307D01*
X731Y307D02*
X732Y307D01*
X881Y307D02*
X882Y307D01*
X1162Y307D02*
X1169Y307D01*
X0Y306D02*
X7Y306D01*
X265Y306D02*
X266Y306D01*
X415Y306D02*
X416Y306D01*
X731Y306D02*
X732Y306D01*
X881Y306D02*
X882Y306D01*
X1162Y306D02*
X1169Y306D01*
X0Y305D02*
X7Y305D01*
X265Y305D02*
X266Y305D01*
X415Y305D02*
X416Y305D01*
X731Y305D02*
X732Y305D01*
X881Y305D02*
X882Y305D01*
X1162Y305D02*
X1169Y305D01*
X0Y304D02*
X7Y304D01*
X265Y304D02*
X266Y304D01*
X415Y304D02*
X416Y304D01*
X731Y304D02*
X732Y304D01*
X881Y304D02*
X882Y304D01*
X1162Y304D02*
X1169Y304D01*
X0Y303D02*
X7Y303D01*
X265Y303D02*
X266Y303D01*
X415Y303D02*
X416Y303D01*
X731Y303D02*
X732Y303D01*
X881Y303D02*
X882Y303D01*
X1162Y303D02*
X1169Y303D01*
X0Y302D02*
X7Y302D01*
X265Y302D02*
X266Y302D01*
X415Y302D02*
X416Y302D01*
X731Y302D02*
X732Y302D01*
X881Y302D02*
X882Y302D01*
X1162Y302D02*
X1169Y302D01*
X0Y301D02*
X7Y301D01*
X265Y301D02*
X266Y301D01*
X415Y301D02*
X416Y301D01*
X731Y301D02*
X732Y301D01*
X881Y301D02*
X882Y301D01*
X1162Y301D02*
X1169Y301D01*
X0Y300D02*
X7Y300D01*
X265Y300D02*
X266Y300D01*
X415Y300D02*
X416Y300D01*
X731Y300D02*
X732Y300D01*
X881Y300D02*
X882Y300D01*
X1162Y300D02*
X1169Y300D01*
X0Y299D02*
X7Y299D01*
X265Y299D02*
X266Y299D01*
X415Y299D02*
X416Y299D01*
X731Y299D02*
X732Y299D01*
X881Y299D02*
X882Y299D01*
X1162Y299D02*
X1169Y299D01*
X0Y298D02*
X7Y298D01*
X265Y298D02*
X266Y298D01*
X415Y298D02*
X416Y298D01*
X731Y298D02*
X732Y298D01*
X881Y298D02*
X882Y298D01*
X1162Y298D02*
X1169Y298D01*
X0Y297D02*
X7Y297D01*
X265Y297D02*
X266Y297D01*
X415Y297D02*
X416Y297D01*
X731Y297D02*
X732Y297D01*
X881Y297D02*
X882Y297D01*
X1162Y297D02*
X1169Y297D01*
X0Y296D02*
X7Y296D01*
X265Y296D02*
X266Y296D01*
X415Y296D02*
X416Y296D01*
X727Y296D02*
X732Y296D01*
X881Y296D02*
X886Y296D01*
X1162Y296D02*
X1169Y296D01*
X0Y295D02*
X7Y295D01*
X265Y295D02*
X266Y295D01*
X415Y295D02*
X416Y295D01*
X727Y295D02*
X732Y295D01*
X881Y295D02*
X886Y295D01*
X1162Y295D02*
X1169Y295D01*
X0Y294D02*
X7Y294D01*
X265Y294D02*
X266Y294D01*
X415Y294D02*
X416Y294D01*
X727Y294D02*
X732Y294D01*
X881Y294D02*
X886Y294D01*
X1162Y294D02*
X1169Y294D01*
X0Y293D02*
X7Y293D01*
X265Y293D02*
X266Y293D01*
X415Y293D02*
X416Y293D01*
X727Y293D02*
X732Y293D01*
X881Y293D02*
X886Y293D01*
X1162Y293D02*
X1169Y293D01*
X0Y292D02*
X7Y292D01*
X265Y292D02*
X266Y292D01*
X415Y292D02*
X416Y292D01*
X727Y292D02*
X732Y292D01*
X881Y292D02*
X886Y292D01*
X1162Y292D02*
X1169Y292D01*
X0Y291D02*
X7Y291D01*
X265Y291D02*
X266Y291D01*
X415Y291D02*
X416Y291D01*
X727Y291D02*
X732Y291D01*
X881Y291D02*
X886Y291D01*
X1162Y291D02*
X1169Y291D01*
X0Y290D02*
X7Y290D01*
X265Y290D02*
X266Y290D01*
X415Y290D02*
X416Y290D01*
X727Y290D02*
X732Y290D01*
X881Y290D02*
X886Y290D01*
X1162Y290D02*
X1169Y290D01*
X0Y289D02*
X7Y289D01*
X265Y289D02*
X266Y289D01*
X415Y289D02*
X416Y289D01*
X727Y289D02*
X732Y289D01*
X881Y289D02*
X886Y289D01*
X1162Y289D02*
X1169Y289D01*
X0Y288D02*
X7Y288D01*
X265Y288D02*
X266Y288D01*
X415Y288D02*
X416Y288D01*
X727Y288D02*
X732Y288D01*
X881Y288D02*
X886Y288D01*
X1162Y288D02*
X1169Y288D01*
X0Y287D02*
X7Y287D01*
X265Y287D02*
X266Y287D01*
X415Y287D02*
X416Y287D01*
X727Y287D02*
X732Y287D01*
X881Y287D02*
X886Y287D01*
X1162Y287D02*
X1169Y287D01*
X0Y286D02*
X7Y286D01*
X265Y286D02*
X266Y286D01*
X415Y286D02*
X416Y286D01*
X727Y286D02*
X732Y286D01*
X881Y286D02*
X886Y286D01*
X1162Y286D02*
X1169Y286D01*
X0Y285D02*
X7Y285D01*
X265Y285D02*
X266Y285D01*
X415Y285D02*
X416Y285D01*
X727Y285D02*
X732Y285D01*
X881Y285D02*
X886Y285D01*
X1162Y285D02*
X1169Y285D01*
X0Y284D02*
X7Y284D01*
X265Y284D02*
X266Y284D01*
X415Y284D02*
X416Y284D01*
X727Y284D02*
X732Y284D01*
X881Y284D02*
X886Y284D01*
X1162Y284D02*
X1169Y284D01*
X0Y283D02*
X7Y283D01*
X265Y283D02*
X266Y283D01*
X415Y283D02*
X416Y283D01*
X727Y283D02*
X732Y283D01*
X881Y283D02*
X886Y283D01*
X1162Y283D02*
X1169Y283D01*
X0Y282D02*
X7Y282D01*
X265Y282D02*
X266Y282D01*
X415Y282D02*
X416Y282D01*
X731Y282D02*
X732Y282D01*
X881Y282D02*
X882Y282D01*
X1162Y282D02*
X1169Y282D01*
X0Y281D02*
X7Y281D01*
X265Y281D02*
X266Y281D01*
X415Y281D02*
X416Y281D01*
X731Y281D02*
X732Y281D01*
X881Y281D02*
X882Y281D01*
X1162Y281D02*
X1169Y281D01*
X0Y280D02*
X7Y280D01*
X265Y280D02*
X266Y280D01*
X415Y280D02*
X416Y280D01*
X731Y280D02*
X732Y280D01*
X881Y280D02*
X882Y280D01*
X1162Y280D02*
X1169Y280D01*
X0Y279D02*
X7Y279D01*
X265Y279D02*
X266Y279D01*
X415Y279D02*
X416Y279D01*
X731Y279D02*
X732Y279D01*
X881Y279D02*
X882Y279D01*
X1162Y279D02*
X1169Y279D01*
X0Y278D02*
X7Y278D01*
X265Y278D02*
X266Y278D01*
X415Y278D02*
X416Y278D01*
X731Y278D02*
X732Y278D01*
X881Y278D02*
X882Y278D01*
X1162Y278D02*
X1169Y278D01*
X0Y277D02*
X7Y277D01*
X261Y277D02*
X266Y277D01*
X415Y277D02*
X420Y277D01*
X731Y277D02*
X732Y277D01*
X881Y277D02*
X882Y277D01*
X1162Y277D02*
X1169Y277D01*
X0Y276D02*
X7Y276D01*
X261Y276D02*
X266Y276D01*
X415Y276D02*
X420Y276D01*
X731Y276D02*
X732Y276D01*
X881Y276D02*
X882Y276D01*
X1162Y276D02*
X1169Y276D01*
X0Y275D02*
X7Y275D01*
X261Y275D02*
X266Y275D01*
X415Y275D02*
X420Y275D01*
X731Y275D02*
X732Y275D01*
X850Y275D02*
X857Y275D01*
X881Y275D02*
X882Y275D01*
X1162Y275D02*
X1169Y275D01*
X0Y274D02*
X7Y274D01*
X261Y274D02*
X266Y274D01*
X415Y274D02*
X420Y274D01*
X731Y274D02*
X732Y274D01*
X848Y274D02*
X859Y274D01*
X881Y274D02*
X882Y274D01*
X1162Y274D02*
X1169Y274D01*
X0Y273D02*
X7Y273D01*
X261Y273D02*
X266Y273D01*
X415Y273D02*
X420Y273D01*
X731Y273D02*
X732Y273D01*
X847Y273D02*
X860Y273D01*
X881Y273D02*
X882Y273D01*
X1162Y273D02*
X1169Y273D01*
X0Y272D02*
X7Y272D01*
X261Y272D02*
X266Y272D01*
X415Y272D02*
X420Y272D01*
X731Y272D02*
X732Y272D01*
X846Y272D02*
X861Y272D01*
X881Y272D02*
X882Y272D01*
X1162Y272D02*
X1169Y272D01*
X0Y271D02*
X7Y271D01*
X261Y271D02*
X266Y271D01*
X415Y271D02*
X420Y271D01*
X731Y271D02*
X732Y271D01*
X845Y271D02*
X862Y271D01*
X881Y271D02*
X882Y271D01*
X1162Y271D02*
X1169Y271D01*
X0Y270D02*
X7Y270D01*
X261Y270D02*
X266Y270D01*
X415Y270D02*
X420Y270D01*
X731Y270D02*
X732Y270D01*
X844Y270D02*
X863Y270D01*
X881Y270D02*
X882Y270D01*
X1162Y270D02*
X1169Y270D01*
X0Y269D02*
X7Y269D01*
X261Y269D02*
X266Y269D01*
X415Y269D02*
X420Y269D01*
X731Y269D02*
X732Y269D01*
X844Y269D02*
X863Y269D01*
X881Y269D02*
X882Y269D01*
X1162Y269D02*
X1169Y269D01*
X0Y268D02*
X7Y268D01*
X261Y268D02*
X266Y268D01*
X415Y268D02*
X420Y268D01*
X731Y268D02*
X732Y268D01*
X843Y268D02*
X863Y268D01*
X881Y268D02*
X882Y268D01*
X1162Y268D02*
X1169Y268D01*
X0Y267D02*
X7Y267D01*
X261Y267D02*
X266Y267D01*
X415Y267D02*
X420Y267D01*
X731Y267D02*
X732Y267D01*
X843Y267D02*
X864Y267D01*
X881Y267D02*
X882Y267D01*
X1162Y267D02*
X1169Y267D01*
X0Y266D02*
X7Y266D01*
X261Y266D02*
X266Y266D01*
X415Y266D02*
X420Y266D01*
X731Y266D02*
X732Y266D01*
X843Y266D02*
X864Y266D01*
X881Y266D02*
X882Y266D01*
X1162Y266D02*
X1169Y266D01*
X0Y265D02*
X7Y265D01*
X261Y265D02*
X266Y265D01*
X415Y265D02*
X420Y265D01*
X731Y265D02*
X732Y265D01*
X843Y265D02*
X864Y265D01*
X881Y265D02*
X882Y265D01*
X1162Y265D02*
X1169Y265D01*
X0Y264D02*
X7Y264D01*
X261Y264D02*
X266Y264D01*
X415Y264D02*
X420Y264D01*
X731Y264D02*
X732Y264D01*
X843Y264D02*
X864Y264D01*
X881Y264D02*
X882Y264D01*
X1162Y264D02*
X1169Y264D01*
X0Y263D02*
X7Y263D01*
X265Y263D02*
X266Y263D01*
X415Y263D02*
X416Y263D01*
X731Y263D02*
X732Y263D01*
X843Y263D02*
X864Y263D01*
X881Y263D02*
X882Y263D01*
X1162Y263D02*
X1169Y263D01*
X0Y262D02*
X7Y262D01*
X265Y262D02*
X266Y262D01*
X415Y262D02*
X416Y262D01*
X731Y262D02*
X732Y262D01*
X843Y262D02*
X864Y262D01*
X881Y262D02*
X882Y262D01*
X1162Y262D02*
X1169Y262D01*
X0Y261D02*
X7Y261D01*
X265Y261D02*
X266Y261D01*
X415Y261D02*
X416Y261D01*
X731Y261D02*
X732Y261D01*
X805Y261D02*
X809Y261D01*
X843Y261D02*
X863Y261D01*
X881Y261D02*
X882Y261D01*
X1162Y261D02*
X1169Y261D01*
X0Y260D02*
X7Y260D01*
X265Y260D02*
X266Y260D01*
X415Y260D02*
X416Y260D01*
X731Y260D02*
X732Y260D01*
X801Y260D02*
X813Y260D01*
X844Y260D02*
X863Y260D01*
X881Y260D02*
X882Y260D01*
X1162Y260D02*
X1169Y260D01*
X0Y259D02*
X7Y259D01*
X265Y259D02*
X266Y259D01*
X415Y259D02*
X416Y259D01*
X731Y259D02*
X732Y259D01*
X798Y259D02*
X816Y259D01*
X844Y259D02*
X863Y259D01*
X881Y259D02*
X882Y259D01*
X1162Y259D02*
X1169Y259D01*
X0Y258D02*
X7Y258D01*
X265Y258D02*
X266Y258D01*
X415Y258D02*
X416Y258D01*
X731Y258D02*
X732Y258D01*
X796Y258D02*
X804Y258D01*
X809Y258D02*
X817Y258D01*
X845Y258D02*
X862Y258D01*
X881Y258D02*
X882Y258D01*
X1162Y258D02*
X1169Y258D01*
X0Y257D02*
X7Y257D01*
X265Y257D02*
X266Y257D01*
X415Y257D02*
X416Y257D01*
X731Y257D02*
X732Y257D01*
X795Y257D02*
X800Y257D01*
X814Y257D02*
X819Y257D01*
X846Y257D02*
X861Y257D01*
X881Y257D02*
X882Y257D01*
X1162Y257D02*
X1169Y257D01*
X0Y256D02*
X7Y256D01*
X265Y256D02*
X266Y256D01*
X415Y256D02*
X416Y256D01*
X731Y256D02*
X732Y256D01*
X794Y256D02*
X798Y256D01*
X816Y256D02*
X820Y256D01*
X847Y256D02*
X860Y256D01*
X881Y256D02*
X882Y256D01*
X1162Y256D02*
X1169Y256D01*
X0Y255D02*
X7Y255D01*
X265Y255D02*
X266Y255D01*
X415Y255D02*
X416Y255D01*
X731Y255D02*
X732Y255D01*
X793Y255D02*
X796Y255D01*
X818Y255D02*
X821Y255D01*
X848Y255D02*
X859Y255D01*
X881Y255D02*
X882Y255D01*
X1162Y255D02*
X1169Y255D01*
X0Y254D02*
X7Y254D01*
X265Y254D02*
X266Y254D01*
X415Y254D02*
X416Y254D01*
X731Y254D02*
X733Y254D01*
X792Y254D02*
X795Y254D01*
X819Y254D02*
X822Y254D01*
X850Y254D02*
X856Y254D01*
X881Y254D02*
X882Y254D01*
X1162Y254D02*
X1169Y254D01*
X0Y253D02*
X7Y253D01*
X265Y253D02*
X266Y253D01*
X415Y253D02*
X416Y253D01*
X731Y253D02*
X733Y253D01*
X791Y253D02*
X793Y253D01*
X820Y253D02*
X823Y253D01*
X881Y253D02*
X882Y253D01*
X1162Y253D02*
X1169Y253D01*
X0Y252D02*
X7Y252D01*
X265Y252D02*
X266Y252D01*
X415Y252D02*
X416Y252D01*
X731Y252D02*
X733Y252D01*
X790Y252D02*
X793Y252D01*
X821Y252D02*
X824Y252D01*
X881Y252D02*
X882Y252D01*
X1162Y252D02*
X1169Y252D01*
X0Y251D02*
X7Y251D01*
X265Y251D02*
X266Y251D01*
X415Y251D02*
X416Y251D01*
X731Y251D02*
X733Y251D01*
X789Y251D02*
X792Y251D01*
X822Y251D02*
X825Y251D01*
X881Y251D02*
X882Y251D01*
X1162Y251D02*
X1169Y251D01*
X0Y250D02*
X7Y250D01*
X265Y250D02*
X266Y250D01*
X415Y250D02*
X416Y250D01*
X731Y250D02*
X733Y250D01*
X789Y250D02*
X791Y250D01*
X823Y250D02*
X825Y250D01*
X880Y250D02*
X882Y250D01*
X1162Y250D02*
X1169Y250D01*
X0Y249D02*
X7Y249D01*
X265Y249D02*
X266Y249D01*
X415Y249D02*
X416Y249D01*
X731Y249D02*
X734Y249D01*
X788Y249D02*
X790Y249D01*
X823Y249D02*
X826Y249D01*
X880Y249D02*
X882Y249D01*
X1162Y249D02*
X1169Y249D01*
X0Y248D02*
X7Y248D01*
X265Y248D02*
X266Y248D01*
X415Y248D02*
X416Y248D01*
X731Y248D02*
X734Y248D01*
X788Y248D02*
X790Y248D01*
X824Y248D02*
X826Y248D01*
X879Y248D02*
X882Y248D01*
X1162Y248D02*
X1169Y248D01*
X0Y247D02*
X7Y247D01*
X265Y247D02*
X266Y247D01*
X415Y247D02*
X416Y247D01*
X731Y247D02*
X735Y247D01*
X787Y247D02*
X789Y247D01*
X824Y247D02*
X826Y247D01*
X879Y247D02*
X882Y247D01*
X1162Y247D02*
X1169Y247D01*
X0Y246D02*
X7Y246D01*
X265Y246D02*
X266Y246D01*
X415Y246D02*
X416Y246D01*
X730Y246D02*
X736Y246D01*
X787Y246D02*
X789Y246D01*
X825Y246D02*
X827Y246D01*
X878Y246D02*
X884Y246D01*
X1162Y246D02*
X1169Y246D01*
X0Y245D02*
X7Y245D01*
X265Y245D02*
X266Y245D01*
X415Y245D02*
X416Y245D01*
X731Y245D02*
X737Y245D01*
X787Y245D02*
X789Y245D01*
X825Y245D02*
X827Y245D01*
X877Y245D02*
X883Y245D01*
X1162Y245D02*
X1169Y245D01*
X0Y244D02*
X7Y244D01*
X265Y244D02*
X266Y244D01*
X415Y244D02*
X416Y244D01*
X731Y244D02*
X739Y244D01*
X786Y244D02*
X788Y244D01*
X825Y244D02*
X827Y244D01*
X875Y244D02*
X882Y244D01*
X1162Y244D02*
X1169Y244D01*
X0Y243D02*
X7Y243D01*
X265Y243D02*
X266Y243D01*
X415Y243D02*
X416Y243D01*
X732Y243D02*
X742Y243D01*
X786Y243D02*
X788Y243D01*
X826Y243D02*
X828Y243D01*
X872Y243D02*
X882Y243D01*
X1162Y243D02*
X1169Y243D01*
X0Y242D02*
X7Y242D01*
X265Y242D02*
X266Y242D01*
X415Y242D02*
X416Y242D01*
X733Y242D02*
X744Y242D01*
X786Y242D02*
X788Y242D01*
X826Y242D02*
X828Y242D01*
X869Y242D02*
X881Y242D01*
X1162Y242D02*
X1169Y242D01*
X0Y241D02*
X7Y241D01*
X265Y241D02*
X266Y241D01*
X415Y241D02*
X416Y241D01*
X734Y241D02*
X744Y241D01*
X786Y241D02*
X788Y241D01*
X826Y241D02*
X828Y241D01*
X869Y241D02*
X880Y241D01*
X1162Y241D02*
X1169Y241D01*
X0Y240D02*
X7Y240D01*
X265Y240D02*
X266Y240D01*
X415Y240D02*
X416Y240D01*
X735Y240D02*
X744Y240D01*
X786Y240D02*
X788Y240D01*
X826Y240D02*
X828Y240D01*
X869Y240D02*
X878Y240D01*
X1162Y240D02*
X1169Y240D01*
X0Y239D02*
X7Y239D01*
X265Y239D02*
X266Y239D01*
X415Y239D02*
X416Y239D01*
X737Y239D02*
X744Y239D01*
X869Y239D02*
X877Y239D01*
X1162Y239D02*
X1169Y239D01*
X0Y238D02*
X7Y238D01*
X265Y238D02*
X266Y238D01*
X415Y238D02*
X416Y238D01*
X739Y238D02*
X744Y238D01*
X869Y238D02*
X875Y238D01*
X1162Y238D02*
X1169Y238D01*
X0Y237D02*
X7Y237D01*
X265Y237D02*
X266Y237D01*
X415Y237D02*
X416Y237D01*
X743Y237D02*
X744Y237D01*
X870Y237D02*
X871Y237D01*
X1162Y237D02*
X1169Y237D01*
X0Y236D02*
X7Y236D01*
X265Y236D02*
X266Y236D01*
X415Y236D02*
X416Y236D01*
X1162Y236D02*
X1169Y236D01*
X0Y235D02*
X7Y235D01*
X265Y235D02*
X266Y235D01*
X415Y235D02*
X416Y235D01*
X1162Y235D02*
X1169Y235D01*
X0Y234D02*
X7Y234D01*
X265Y234D02*
X266Y234D01*
X415Y234D02*
X416Y234D01*
X1162Y234D02*
X1169Y234D01*
X0Y233D02*
X7Y233D01*
X265Y233D02*
X266Y233D01*
X415Y233D02*
X416Y233D01*
X1162Y233D02*
X1169Y233D01*
X0Y232D02*
X7Y232D01*
X265Y232D02*
X266Y232D01*
X415Y232D02*
X416Y232D01*
X1162Y232D02*
X1169Y232D01*
X0Y231D02*
X7Y231D01*
X265Y231D02*
X266Y231D01*
X415Y231D02*
X416Y231D01*
X1162Y231D02*
X1169Y231D01*
X0Y230D02*
X7Y230D01*
X265Y230D02*
X266Y230D01*
X415Y230D02*
X416Y230D01*
X1162Y230D02*
X1169Y230D01*
X0Y229D02*
X7Y229D01*
X265Y229D02*
X266Y229D01*
X415Y229D02*
X416Y229D01*
X1162Y229D02*
X1169Y229D01*
X0Y228D02*
X7Y228D01*
X265Y228D02*
X266Y228D01*
X415Y228D02*
X416Y228D01*
X1162Y228D02*
X1169Y228D01*
X0Y227D02*
X7Y227D01*
X261Y227D02*
X266Y227D01*
X415Y227D02*
X420Y227D01*
X1162Y227D02*
X1169Y227D01*
X0Y226D02*
X7Y226D01*
X261Y226D02*
X266Y226D01*
X415Y226D02*
X420Y226D01*
X1162Y226D02*
X1169Y226D01*
X0Y225D02*
X7Y225D01*
X261Y225D02*
X266Y225D01*
X415Y225D02*
X420Y225D01*
X1162Y225D02*
X1169Y225D01*
X0Y224D02*
X7Y224D01*
X261Y224D02*
X266Y224D01*
X415Y224D02*
X420Y224D01*
X1162Y224D02*
X1169Y224D01*
X0Y223D02*
X7Y223D01*
X261Y223D02*
X266Y223D01*
X415Y223D02*
X420Y223D01*
X1162Y223D02*
X1169Y223D01*
X0Y222D02*
X7Y222D01*
X261Y222D02*
X266Y222D01*
X415Y222D02*
X420Y222D01*
X1162Y222D02*
X1169Y222D01*
X0Y221D02*
X7Y221D01*
X261Y221D02*
X266Y221D01*
X415Y221D02*
X420Y221D01*
X1162Y221D02*
X1169Y221D01*
X0Y220D02*
X7Y220D01*
X261Y220D02*
X266Y220D01*
X415Y220D02*
X420Y220D01*
X1162Y220D02*
X1169Y220D01*
X0Y219D02*
X7Y219D01*
X261Y219D02*
X266Y219D01*
X415Y219D02*
X420Y219D01*
X1162Y219D02*
X1169Y219D01*
X0Y218D02*
X7Y218D01*
X261Y218D02*
X266Y218D01*
X415Y218D02*
X420Y218D01*
X1162Y218D02*
X1169Y218D01*
X0Y217D02*
X7Y217D01*
X261Y217D02*
X266Y217D01*
X415Y217D02*
X420Y217D01*
X1162Y217D02*
X1169Y217D01*
X0Y216D02*
X7Y216D01*
X261Y216D02*
X266Y216D01*
X415Y216D02*
X420Y216D01*
X1162Y216D02*
X1169Y216D01*
X0Y215D02*
X7Y215D01*
X261Y215D02*
X266Y215D01*
X415Y215D02*
X420Y215D01*
X1162Y215D02*
X1169Y215D01*
X0Y214D02*
X7Y214D01*
X261Y214D02*
X266Y214D01*
X415Y214D02*
X420Y214D01*
X1162Y214D02*
X1169Y214D01*
X0Y213D02*
X7Y213D01*
X265Y213D02*
X266Y213D01*
X415Y213D02*
X416Y213D01*
X1162Y213D02*
X1169Y213D01*
X0Y212D02*
X7Y212D01*
X265Y212D02*
X266Y212D01*
X415Y212D02*
X416Y212D01*
X1162Y212D02*
X1169Y212D01*
X0Y211D02*
X7Y211D01*
X265Y211D02*
X266Y211D01*
X415Y211D02*
X416Y211D01*
X1162Y211D02*
X1169Y211D01*
X0Y210D02*
X7Y210D01*
X265Y210D02*
X266Y210D01*
X415Y210D02*
X416Y210D01*
X1162Y210D02*
X1169Y210D01*
X0Y209D02*
X7Y209D01*
X265Y209D02*
X266Y209D01*
X415Y209D02*
X416Y209D01*
X1162Y209D02*
X1169Y209D01*
X0Y208D02*
X7Y208D01*
X265Y208D02*
X266Y208D01*
X415Y208D02*
X416Y208D01*
X1162Y208D02*
X1169Y208D01*
X0Y207D02*
X7Y207D01*
X265Y207D02*
X266Y207D01*
X415Y207D02*
X416Y207D01*
X1162Y207D02*
X1169Y207D01*
X0Y206D02*
X7Y206D01*
X265Y206D02*
X266Y206D01*
X415Y206D02*
X416Y206D01*
X1162Y206D02*
X1169Y206D01*
X0Y205D02*
X7Y205D01*
X265Y205D02*
X266Y205D01*
X415Y205D02*
X416Y205D01*
X1162Y205D02*
X1169Y205D01*
X0Y204D02*
X7Y204D01*
X265Y204D02*
X266Y204D01*
X415Y204D02*
X416Y204D01*
X1162Y204D02*
X1169Y204D01*
X0Y203D02*
X7Y203D01*
X265Y203D02*
X266Y203D01*
X415Y203D02*
X416Y203D01*
X1162Y203D02*
X1169Y203D01*
X0Y202D02*
X7Y202D01*
X265Y202D02*
X266Y202D01*
X415Y202D02*
X416Y202D01*
X1162Y202D02*
X1169Y202D01*
X0Y201D02*
X7Y201D01*
X265Y201D02*
X266Y201D01*
X415Y201D02*
X416Y201D01*
X1162Y201D02*
X1169Y201D01*
X0Y200D02*
X7Y200D01*
X265Y200D02*
X266Y200D01*
X415Y200D02*
X416Y200D01*
X1162Y200D02*
X1169Y200D01*
X0Y199D02*
X7Y199D01*
X265Y199D02*
X266Y199D01*
X415Y199D02*
X416Y199D01*
X1162Y199D02*
X1169Y199D01*
X0Y198D02*
X7Y198D01*
X265Y198D02*
X266Y198D01*
X415Y198D02*
X416Y198D01*
X1162Y198D02*
X1169Y198D01*
X0Y197D02*
X7Y197D01*
X265Y197D02*
X266Y197D01*
X415Y197D02*
X416Y197D01*
X1162Y197D02*
X1169Y197D01*
X0Y196D02*
X7Y196D01*
X265Y196D02*
X266Y196D01*
X415Y196D02*
X416Y196D01*
X1162Y196D02*
X1169Y196D01*
X0Y195D02*
X7Y195D01*
X265Y195D02*
X266Y195D01*
X415Y195D02*
X416Y195D01*
X1162Y195D02*
X1169Y195D01*
X0Y194D02*
X7Y194D01*
X265Y194D02*
X266Y194D01*
X415Y194D02*
X416Y194D01*
X1162Y194D02*
X1169Y194D01*
X0Y193D02*
X7Y193D01*
X265Y193D02*
X266Y193D01*
X415Y193D02*
X416Y193D01*
X1162Y193D02*
X1169Y193D01*
X0Y192D02*
X7Y192D01*
X265Y192D02*
X266Y192D01*
X415Y192D02*
X416Y192D01*
X1162Y192D02*
X1169Y192D01*
X0Y191D02*
X7Y191D01*
X265Y191D02*
X266Y191D01*
X415Y191D02*
X416Y191D01*
X1162Y191D02*
X1169Y191D01*
X0Y190D02*
X7Y190D01*
X265Y190D02*
X266Y190D01*
X415Y190D02*
X416Y190D01*
X1162Y190D02*
X1169Y190D01*
X0Y189D02*
X7Y189D01*
X265Y189D02*
X266Y189D01*
X415Y189D02*
X416Y189D01*
X1162Y189D02*
X1169Y189D01*
X0Y188D02*
X7Y188D01*
X265Y188D02*
X266Y188D01*
X415Y188D02*
X416Y188D01*
X1162Y188D02*
X1169Y188D01*
X0Y187D02*
X7Y187D01*
X265Y187D02*
X266Y187D01*
X415Y187D02*
X416Y187D01*
X1162Y187D02*
X1169Y187D01*
X0Y186D02*
X7Y186D01*
X265Y186D02*
X266Y186D01*
X415Y186D02*
X416Y186D01*
X1162Y186D02*
X1169Y186D01*
X0Y185D02*
X7Y185D01*
X265Y185D02*
X266Y185D01*
X415Y185D02*
X416Y185D01*
X1162Y185D02*
X1169Y185D01*
X0Y184D02*
X7Y184D01*
X265Y184D02*
X266Y184D01*
X415Y184D02*
X416Y184D01*
X1162Y184D02*
X1169Y184D01*
X0Y183D02*
X7Y183D01*
X265Y183D02*
X266Y183D01*
X414Y183D02*
X416Y183D01*
X1162Y183D02*
X1169Y183D01*
X0Y182D02*
X7Y182D01*
X265Y182D02*
X266Y182D01*
X414Y182D02*
X416Y182D01*
X1162Y182D02*
X1169Y182D01*
X0Y181D02*
X7Y181D01*
X265Y181D02*
X267Y181D01*
X414Y181D02*
X416Y181D01*
X1162Y181D02*
X1169Y181D01*
X0Y180D02*
X7Y180D01*
X265Y180D02*
X267Y180D01*
X413Y180D02*
X416Y180D01*
X1162Y180D02*
X1169Y180D01*
X0Y179D02*
X7Y179D01*
X265Y179D02*
X268Y179D01*
X413Y179D02*
X416Y179D01*
X1162Y179D02*
X1169Y179D01*
X0Y178D02*
X7Y178D01*
X265Y178D02*
X269Y178D01*
X412Y178D02*
X416Y178D01*
X1162Y178D02*
X1169Y178D01*
X0Y177D02*
X7Y177D01*
X263Y177D02*
X269Y177D01*
X411Y177D02*
X417Y177D01*
X1162Y177D02*
X1169Y177D01*
X0Y176D02*
X7Y176D01*
X264Y176D02*
X271Y176D01*
X410Y176D02*
X417Y176D01*
X1162Y176D02*
X1169Y176D01*
X0Y175D02*
X7Y175D01*
X265Y175D02*
X273Y175D01*
X408Y175D02*
X416Y175D01*
X1162Y175D02*
X1169Y175D01*
X0Y174D02*
X7Y174D01*
X266Y174D02*
X276Y174D01*
X404Y174D02*
X415Y174D01*
X1162Y174D02*
X1169Y174D01*
X0Y173D02*
X7Y173D01*
X267Y173D02*
X278Y173D01*
X403Y173D02*
X414Y173D01*
X1162Y173D02*
X1169Y173D01*
X0Y172D02*
X7Y172D01*
X268Y172D02*
X278Y172D01*
X403Y172D02*
X413Y172D01*
X1162Y172D02*
X1169Y172D01*
X0Y171D02*
X7Y171D01*
X269Y171D02*
X278Y171D01*
X403Y171D02*
X412Y171D01*
X1162Y171D02*
X1169Y171D01*
X0Y170D02*
X7Y170D01*
X271Y170D02*
X278Y170D01*
X403Y170D02*
X410Y170D01*
X1162Y170D02*
X1169Y170D01*
X0Y169D02*
X7Y169D01*
X273Y169D02*
X278Y169D01*
X403Y169D02*
X408Y169D01*
X1162Y169D02*
X1169Y169D01*
X0Y168D02*
X7Y168D01*
X278Y168D02*
X278Y168D01*
X403Y168D02*
X403Y168D01*
X1162Y168D02*
X1169Y168D01*
X0Y167D02*
X7Y167D01*
X1162Y167D02*
X1169Y167D01*
X0Y166D02*
X7Y166D01*
X1162Y166D02*
X1169Y166D01*
X0Y165D02*
X7Y165D01*
X1162Y165D02*
X1169Y165D01*
X0Y164D02*
X7Y164D01*
X1162Y164D02*
X1169Y164D01*
X0Y163D02*
X7Y163D01*
X1162Y163D02*
X1169Y163D01*
X0Y162D02*
X7Y162D01*
X1162Y162D02*
X1169Y162D01*
X0Y161D02*
X7Y161D01*
X1162Y161D02*
X1169Y161D01*
X0Y160D02*
X7Y160D01*
X1162Y160D02*
X1169Y160D01*
X0Y159D02*
X7Y159D01*
X1162Y159D02*
X1169Y159D01*
X0Y158D02*
X7Y158D01*
X1162Y158D02*
X1169Y158D01*
X0Y157D02*
X7Y157D01*
X1162Y157D02*
X1169Y157D01*
X0Y156D02*
X7Y156D01*
X1162Y156D02*
X1169Y156D01*
X0Y155D02*
X7Y155D01*
X1162Y155D02*
X1169Y155D01*
X0Y154D02*
X7Y154D01*
X1162Y154D02*
X1169Y154D01*
X0Y153D02*
X7Y153D01*
X1162Y153D02*
X1169Y153D01*
X0Y152D02*
X7Y152D01*
X1162Y152D02*
X1169Y152D01*
X0Y151D02*
X7Y151D01*
X1162Y151D02*
X1169Y151D01*
X0Y150D02*
X7Y150D01*
X1162Y150D02*
X1169Y150D01*
X0Y149D02*
X7Y149D01*
X1162Y149D02*
X1169Y149D01*
X0Y148D02*
X7Y148D01*
X1162Y148D02*
X1169Y148D01*
X0Y147D02*
X7Y147D01*
X1162Y147D02*
X1169Y147D01*
X0Y146D02*
X7Y146D01*
X1162Y146D02*
X1169Y146D01*
X0Y145D02*
X7Y145D01*
X1162Y145D02*
X1169Y145D01*
X0Y144D02*
X7Y144D01*
X1162Y144D02*
X1169Y144D01*
X0Y143D02*
X7Y143D01*
X1162Y143D02*
X1169Y143D01*
X0Y142D02*
X7Y142D01*
X1162Y142D02*
X1169Y142D01*
X0Y141D02*
X7Y141D01*
X1162Y141D02*
X1169Y141D01*
X0Y140D02*
X7Y140D01*
X1162Y140D02*
X1169Y140D01*
X0Y139D02*
X7Y139D01*
X1162Y139D02*
X1169Y139D01*
X0Y138D02*
X7Y138D01*
X1162Y138D02*
X1169Y138D01*
X0Y137D02*
X7Y137D01*
X1162Y137D02*
X1169Y137D01*
X0Y136D02*
X7Y136D01*
X1162Y136D02*
X1169Y136D01*
X0Y135D02*
X7Y135D01*
X1162Y135D02*
X1169Y135D01*
X0Y134D02*
X7Y134D01*
X1162Y134D02*
X1169Y134D01*
X0Y133D02*
X7Y133D01*
X1162Y133D02*
X1169Y133D01*
X0Y132D02*
X7Y132D01*
X1162Y132D02*
X1169Y132D01*
X0Y131D02*
X7Y131D01*
X1162Y131D02*
X1169Y131D01*
X0Y130D02*
X7Y130D01*
X1162Y130D02*
X1169Y130D01*
X0Y129D02*
X7Y129D01*
X1162Y129D02*
X1169Y129D01*
X0Y128D02*
X7Y128D01*
X1162Y128D02*
X1169Y128D01*
X0Y127D02*
X7Y127D01*
X1162Y127D02*
X1169Y127D01*
X0Y126D02*
X7Y126D01*
X1162Y126D02*
X1169Y126D01*
X0Y125D02*
X7Y125D01*
X1162Y125D02*
X1169Y125D01*
X0Y124D02*
X7Y124D01*
X1162Y124D02*
X1169Y124D01*
X0Y123D02*
X7Y123D01*
X1162Y123D02*
X1169Y123D01*
X0Y122D02*
X7Y122D01*
X1162Y122D02*
X1169Y122D01*
X0Y121D02*
X7Y121D01*
X1162Y121D02*
X1169Y121D01*
X0Y120D02*
X7Y120D01*
X1162Y120D02*
X1169Y120D01*
X0Y119D02*
X7Y119D01*
X1162Y119D02*
X1169Y119D01*
X0Y118D02*
X7Y118D01*
X1162Y118D02*
X1169Y118D01*
X0Y117D02*
X7Y117D01*
X1162Y117D02*
X1169Y117D01*
X0Y116D02*
X7Y116D01*
X1162Y116D02*
X1169Y116D01*
X0Y115D02*
X7Y115D01*
X1162Y115D02*
X1169Y115D01*
X0Y114D02*
X7Y114D01*
X1162Y114D02*
X1169Y114D01*
X0Y113D02*
X7Y113D01*
X1162Y113D02*
X1169Y113D01*
X0Y112D02*
X7Y112D01*
X1162Y112D02*
X1169Y112D01*
X0Y111D02*
X7Y111D01*
X1162Y111D02*
X1169Y111D01*
X0Y110D02*
X7Y110D01*
X1162Y110D02*
X1169Y110D01*
X0Y109D02*
X7Y109D01*
X1162Y109D02*
X1169Y109D01*
X0Y108D02*
X7Y108D01*
X1162Y108D02*
X1169Y108D01*
X0Y107D02*
X7Y107D01*
X1162Y107D02*
X1169Y107D01*
X0Y106D02*
X7Y106D01*
X1162Y106D02*
X1169Y106D01*
X0Y105D02*
X7Y105D01*
X1162Y105D02*
X1169Y105D01*
X0Y104D02*
X7Y104D01*
X1162Y104D02*
X1169Y104D01*
X0Y103D02*
X7Y103D01*
X1162Y103D02*
X1169Y103D01*
X0Y102D02*
X7Y102D01*
X1162Y102D02*
X1169Y102D01*
X0Y101D02*
X7Y101D01*
X1162Y101D02*
X1169Y101D01*
X0Y100D02*
X7Y100D01*
X1162Y100D02*
X1169Y100D01*
X0Y99D02*
X7Y99D01*
X1162Y99D02*
X1169Y99D01*
X0Y98D02*
X7Y98D01*
X1162Y98D02*
X1169Y98D01*
X0Y97D02*
X7Y97D01*
X1162Y97D02*
X1169Y97D01*
X0Y96D02*
X7Y96D01*
X1162Y96D02*
X1169Y96D01*
X0Y95D02*
X7Y95D01*
X1162Y95D02*
X1169Y95D01*
X0Y94D02*
X7Y94D01*
X1162Y94D02*
X1169Y94D01*
X0Y93D02*
X7Y93D01*
X1162Y93D02*
X1169Y93D01*
X0Y92D02*
X7Y92D01*
X1162Y92D02*
X1169Y92D01*
X0Y91D02*
X7Y91D01*
X1162Y91D02*
X1169Y91D01*
X0Y90D02*
X7Y90D01*
X1162Y90D02*
X1169Y90D01*
X0Y89D02*
X7Y89D01*
X1162Y89D02*
X1169Y89D01*
X0Y88D02*
X7Y88D01*
X1162Y88D02*
X1169Y88D01*
X0Y87D02*
X7Y87D01*
X1162Y87D02*
X1169Y87D01*
X0Y86D02*
X7Y86D01*
X1162Y86D02*
X1169Y86D01*
X0Y85D02*
X7Y85D01*
X1162Y85D02*
X1169Y85D01*
X0Y84D02*
X7Y84D01*
X1162Y84D02*
X1169Y84D01*
X0Y83D02*
X7Y83D01*
X1162Y83D02*
X1169Y83D01*
X0Y82D02*
X7Y82D01*
X1162Y82D02*
X1169Y82D01*
X0Y81D02*
X7Y81D01*
X1162Y81D02*
X1169Y81D01*
X0Y80D02*
X7Y80D01*
X1162Y80D02*
X1169Y80D01*
X0Y79D02*
X7Y79D01*
X1162Y79D02*
X1169Y79D01*
X0Y78D02*
X7Y78D01*
X1162Y78D02*
X1169Y78D01*
X0Y77D02*
X7Y77D01*
X1162Y77D02*
X1169Y77D01*
X0Y76D02*
X7Y76D01*
X1162Y76D02*
X1169Y76D01*
X0Y75D02*
X7Y75D01*
X1162Y75D02*
X1169Y75D01*
X0Y74D02*
X7Y74D01*
X1162Y74D02*
X1169Y74D01*
X0Y73D02*
X7Y73D01*
X1162Y73D02*
X1169Y73D01*
X0Y72D02*
X7Y72D01*
X1162Y72D02*
X1169Y72D01*
X0Y71D02*
X7Y71D01*
X1162Y71D02*
X1169Y71D01*
X0Y70D02*
X7Y70D01*
X1162Y70D02*
X1169Y70D01*
X0Y69D02*
X7Y69D01*
X1162Y69D02*
X1169Y69D01*
X0Y68D02*
X7Y68D01*
X1162Y68D02*
X1169Y68D01*
X0Y67D02*
X7Y67D01*
X1162Y67D02*
X1169Y67D01*
X0Y66D02*
X7Y66D01*
X1162Y66D02*
X1169Y66D01*
X0Y65D02*
X7Y65D01*
X1162Y65D02*
X1169Y65D01*
X0Y64D02*
X7Y64D01*
X1162Y64D02*
X1169Y64D01*
X0Y63D02*
X7Y63D01*
X1162Y63D02*
X1169Y63D01*
X0Y62D02*
X7Y62D01*
X1162Y62D02*
X1169Y62D01*
X0Y61D02*
X7Y61D01*
X1162Y61D02*
X1169Y61D01*
X0Y60D02*
X7Y60D01*
X1162Y60D02*
X1169Y60D01*
X0Y59D02*
X7Y59D01*
X1162Y59D02*
X1169Y59D01*
X0Y58D02*
X7Y58D01*
X1162Y58D02*
X1169Y58D01*
X0Y57D02*
X7Y57D01*
X1162Y57D02*
X1169Y57D01*
X0Y56D02*
X7Y56D01*
X1162Y56D02*
X1169Y56D01*
X0Y55D02*
X7Y55D01*
X1162Y55D02*
X1169Y55D01*
X0Y54D02*
X7Y54D01*
X1162Y54D02*
X1169Y54D01*
X0Y53D02*
X7Y53D01*
X1162Y53D02*
X1169Y53D01*
X0Y52D02*
X7Y52D01*
X1162Y52D02*
X1169Y52D01*
X0Y51D02*
X7Y51D01*
X1162Y51D02*
X1169Y51D01*
X0Y50D02*
X7Y50D01*
X1162Y50D02*
X1169Y50D01*
X0Y49D02*
X7Y49D01*
X1162Y49D02*
X1169Y49D01*
X0Y48D02*
X7Y48D01*
X1162Y48D02*
X1169Y48D01*
X0Y47D02*
X7Y47D01*
X1162Y47D02*
X1169Y47D01*
X0Y46D02*
X7Y46D01*
X1162Y46D02*
X1169Y46D01*
X0Y45D02*
X7Y45D01*
X1162Y45D02*
X1169Y45D01*
X0Y44D02*
X7Y44D01*
X1162Y44D02*
X1169Y44D01*
X0Y43D02*
X7Y43D01*
X1162Y43D02*
X1169Y43D01*
X0Y42D02*
X7Y42D01*
X1162Y42D02*
X1169Y42D01*
X0Y41D02*
X7Y41D01*
X1162Y41D02*
X1169Y41D01*
X0Y40D02*
X7Y40D01*
X1162Y40D02*
X1169Y40D01*
X0Y39D02*
X7Y39D01*
X1162Y39D02*
X1169Y39D01*
X0Y38D02*
X7Y38D01*
X1162Y38D02*
X1169Y38D01*
X0Y37D02*
X7Y37D01*
X1162Y37D02*
X1169Y37D01*
X0Y36D02*
X7Y36D01*
X1162Y36D02*
X1169Y36D01*
X0Y35D02*
X7Y35D01*
X1162Y35D02*
X1169Y35D01*
X0Y34D02*
X7Y34D01*
X1162Y34D02*
X1169Y34D01*
X0Y33D02*
X7Y33D01*
X1162Y33D02*
X1169Y33D01*
X0Y32D02*
X7Y32D01*
X1162Y32D02*
X1169Y32D01*
X0Y31D02*
X7Y31D01*
X1162Y31D02*
X1169Y31D01*
X0Y30D02*
X7Y30D01*
X1162Y30D02*
X1169Y30D01*
X0Y29D02*
X7Y29D01*
X1162Y29D02*
X1169Y29D01*
X0Y28D02*
X7Y28D01*
X1162Y28D02*
X1169Y28D01*
X0Y27D02*
X7Y27D01*
X1162Y27D02*
X1169Y27D01*
X0Y26D02*
X7Y26D01*
X1162Y26D02*
X1169Y26D01*
X0Y25D02*
X7Y25D01*
X1162Y25D02*
X1169Y25D01*
X0Y24D02*
X7Y24D01*
X1162Y24D02*
X1169Y24D01*
X0Y23D02*
X7Y23D01*
X1162Y23D02*
X1169Y23D01*
X0Y22D02*
X7Y22D01*
X1162Y22D02*
X1169Y22D01*
X0Y21D02*
X7Y21D01*
X1162Y21D02*
X1169Y21D01*
X0Y20D02*
X7Y20D01*
X1162Y20D02*
X1169Y20D01*
X0Y19D02*
X7Y19D01*
X1162Y19D02*
X1169Y19D01*
X0Y18D02*
X7Y18D01*
X1162Y18D02*
X1169Y18D01*
X0Y17D02*
X7Y17D01*
X1162Y17D02*
X1169Y17D01*
X0Y16D02*
X7Y16D01*
X1162Y16D02*
X1169Y16D01*
X0Y15D02*
X7Y15D01*
X1162Y15D02*
X1169Y15D01*
X0Y14D02*
X7Y14D01*
X1162Y14D02*
X1169Y14D01*
X0Y13D02*
X7Y13D01*
X1162Y13D02*
X1169Y13D01*
X0Y12D02*
X7Y12D01*
X1162Y12D02*
X1169Y12D01*
X0Y11D02*
X7Y11D01*
X1162Y11D02*
X1169Y11D01*
X0Y10D02*
X7Y10D01*
X1162Y10D02*
X1169Y10D01*
X0Y9D02*
X1169Y9D01*
X0Y8D02*
X1169Y8D01*
X0Y7D02*
X1169Y7D01*
X0Y6D02*
X1169Y6D01*
X0Y5D02*
X1169Y5D01*
X0Y4D02*
X1169Y4D01*
X0Y3D02*
X1169Y3D01*
X0Y2D02*
X1169Y2D01*
D02*
G04 End of Silk1*
M02*