G04 MADE WITH FRITZING*
G04 WWW.FRITZING.ORG*
G04 DOUBLE SIDED*
G04 HOLES PLATED*
G04 CONTOUR ON CENTER OF CONTOUR VECTOR*
%ASAXBY*%
%FSLAX23Y23*%
%MOIN*%
%OFA0B0*%
%SFA1.0B1.0*%
%ADD10C,0.039370*%
%ADD11C,0.027559*%
%ADD12C,0.078000*%
%ADD13C,0.016000*%
%ADD14C,0.008000*%
%LNCOPPER0*%
G90*
G70*
G54D10*
X330Y628D03*
X326Y199D03*
X929Y691D03*
X606Y742D03*
G54D11*
X464Y585D03*
G54D10*
X606Y262D03*
X389Y396D03*
X826Y416D03*
X606Y431D03*
X606Y581D03*
X771Y152D03*
X772Y486D03*
G54D12*
X1106Y69D03*
X1106Y169D03*
X1106Y269D03*
X1106Y369D03*
X1106Y469D03*
X1106Y569D03*
X1106Y669D03*
X1106Y769D03*
X63Y766D03*
X63Y666D03*
X63Y566D03*
X63Y466D03*
X63Y366D03*
X63Y266D03*
X63Y166D03*
X63Y66D03*
G54D13*
X593Y581D02*
X476Y585D01*
D02*
X606Y594D02*
X606Y729D01*
D02*
X606Y568D02*
X606Y445D01*
D02*
X606Y276D02*
X606Y418D01*
D02*
X329Y399D02*
X330Y615D01*
D02*
X327Y213D02*
X329Y398D01*
D02*
X329Y399D02*
X376Y397D01*
G54D14*
D02*
X771Y165D02*
X772Y473D01*
G54D13*
D02*
X393Y814D02*
X929Y814D01*
D02*
X331Y758D02*
X393Y814D01*
D02*
X929Y814D02*
X929Y705D01*
D02*
X330Y642D02*
X331Y758D01*
G04 End of Copper0*
M02*